<?xml version="1.0" encoding="UTF-8" standalone="no"?>
<svg
   xmlns:dc="http://purl.org/dc/elements/1.1/"
   xmlns:cc="http://creativecommons.org/ns#"
   xmlns:rdf="http://www.w3.org/1999/02/22-rdf-syntax-ns#"
   xmlns:svg="http://www.w3.org/2000/svg"
   xmlns="http://www.w3.org/2000/svg"
   viewBox="0 0 1684.16 3027.8401"
   height="3027.8401"
   width="1684.16"
   xml:space="preserve"
   id="svg2"
   version="1.1"><metadata
     id="metadata8"><rdf:RDF><cc:Work
         rdf:about=""><dc:format>image/svg+xml</dc:format><dc:type
           rdf:resource="http://purl.org/dc/dcmitype/StillImage" /></cc:Work></rdf:RDF></metadata><defs
     id="defs6"><clipPath
       id="clipPath20"
       clipPathUnits="userSpaceOnUse"><path
         id="path18"
         d="M 0,2270.88 H 1263.12 V 0 H 0 Z" /></clipPath></defs><g
     transform="matrix(1.3333333,0,0,-1.3333333,0,3027.84)"
     id="g10"><path
       id="path12"
       style="fill:#1f1e1d;fill-opacity:1;fill-rule:nonzero;stroke:none"
       d="M 0,0 H 1263.12 V 2270.88 H 0 Z" /><g
       id="g14"><g
         clip-path="url(#clipPath20)"
         id="g16"><g
           transform="translate(29.6543,436.6955)"
           id="g22"><path
             id="path24"
             style="fill:#0578be;fill-opacity:1;fill-rule:nonzero;stroke:none"
             d="m 0,0 h 72.764 c 11.06,0 26.16,-0.989 39.325,-8.22 C 116.832,-3.163 123.57,0 131.05,0 h 97.085 c 3.371,0 6.589,-0.649 9.545,-1.816 2.956,1.167 6.174,1.816 9.546,1.816 h 67.738 c 21.723,0 37.127,-2.148 51.467,-13.104 2.06,-1.545 3.921,-3.166 5.622,-4.847 2.213,2.002 4.562,3.867 7.078,5.545 17.321,11.548 32.896,13.411 63.467,13.411 21.388,0 34.107,-0.949 46.238,-6.117 4.431,3.281 9.837,5.112 15.465,5.112 h 35.98 c 9.78,0 18.483,-5.446 22.914,-13.708 C 567.642,-5.417 576.364,0 586.109,0 h 36.986 c 9.677,0 18.34,-5.341 22.813,-13.523 C 650.372,-5.361 659.021,0 668.723,0 h 35.979 c 5.762,0 11.29,-1.917 15.778,-5.345 4.423,3.378 9.918,5.345 15.774,5.345 h 54.472 c 11.443,0 21.542,-7.482 24.873,-18.43 l 4.074,-13.386 c 2.638,4.405 5.905,8.581 9.953,12.542 0.049,0.047 0.098,0.095 0.147,0.142 17.891,17.23 36.331,20.137 70.899,20.137 20.595,0 31.754,-0.672 45.064,-6.815 0.052,-0.023 0.103,-0.046 0.154,-0.071 1.336,-0.627 2.618,-1.304 3.873,-2.005 C 954.487,-3.025 961.092,0 968.406,0 h 35.98 c 10.223,0 19.069,-5.901 23.316,-14.482 4.247,8.581 13.093,14.482 23.317,14.482 h 35.979 c 2.112,0 4.163,-0.258 6.129,-0.734 1.967,0.476 4.018,0.734 6.13,0.734 H 1205.12 V 1125.482 H -1.309 V -0.033 C -0.875,-0.012 -0.439,0 0,0" /></g><g
           transform="translate(116.5361,1797.9421)"
           id="g26"><path
             id="path28"
             style="fill:#ffffff;fill-opacity:1;fill-rule:nonzero;stroke:none"
             d="m 0,0 c 14.256,0 16.914,3.866 16.914,25.612 0,15.947 -3.141,19.33 -19.088,19.33 H -34.31 V 0 Z M -77.561,81.91 H 3.866 c 23.196,0 33.586,-2.175 43.009,-9.423 10.39,-7.732 14.256,-19.089 14.256,-40.835 0,-23.437 -2.9,-34.31 -10.873,-40.592 -4.108,-3.383 -7.974,-4.832 -19.33,-7.732 v -1.691 C 50.741,-19.33 60.406,-29.961 59.923,-49.774 V -79.252 H 15.947 v 21.504 c 0.484,14.98 -5.315,21.746 -18.121,21.263 H -34.31 v -42.767 h -43.251 z" /></g><g
           transform="translate(307.4126,1847.7166)"
           id="g30"><path
             id="path32"
             style="fill:#ffffff;fill-opacity:1;fill-rule:nonzero;stroke:none"
             d="m 0,0 -19.813,-70.071 h 40.109 z m -28.995,-101.24 -7.732,-27.787 h -44.941 l 48.324,161.163 h 65.48 l 49.05,-161.163 H 37.21 l -8.457,27.787 z" /></g><g
           transform="translate(636.4971,1718.6897)"
           id="g34"><path
             id="path36"
             style="fill:#ffffff;fill-opacity:1;fill-rule:nonzero;stroke:none"
             d="m 0,0 h -42.526 v 48.325 c 0,15.705 0.241,22.47 2.174,56.298 l 0.967,18.846 h -1.45 L -46.392,105.106 -52.191,86.743 -64.272,50.016 -80.944,0 h -36.969 l -17.155,50.258 -12.323,36.485 c -2.899,9.423 -6.765,21.746 -11.598,36.726 h -1.449 l 1.208,-18.846 c 1.933,-33.828 2.416,-42.768 2.416,-56.298 V 0 h -42.525 v 161.163 h 67.412 l 14.981,-46.15 c 5.074,-15.464 7.249,-22.713 11.114,-35.761 1.692,-6.523 3.383,-13.047 5.316,-19.33 h 1.692 l 3.624,13.773 c 5.316,20.055 6.04,22.954 11.84,41.076 l 14.497,46.392 H 0 Z" /></g><g
           transform="translate(787.0225,1829.5945)"
           id="g38"><path
             id="path40"
             style="fill:#ffffff;fill-opacity:1;fill-rule:nonzero;stroke:none"
             d="m 0,0 v 2.899 c 0,12.807 -4.35,15.706 -22.713,15.706 -21.02,0 -26.095,-2.899 -26.095,-15.706 0,-5.315 1.208,-9.181 3.624,-11.114 2.659,-2.416 4.108,-2.658 17.88,-3.624 39.144,-2.9 39.627,-2.9 49.775,-6.041 17.638,-5.557 23.437,-16.189 23.437,-42.042 0,-21.746 -3.14,-32.861 -11.356,-40.11 -10.631,-9.181 -23.679,-12.081 -55.573,-12.081 -41.076,0 -56.54,4.108 -64.755,17.155 -5.075,7.974 -6.524,16.672 -6.524,36.244 h 41.076 v -3.141 c 0,-6.766 1.45,-10.874 4.832,-13.29 3.624,-2.899 5.558,-3.141 25.371,-3.141 14.014,0 16.189,0.242 19.813,3.383 3.141,2.658 4.591,6.282 4.591,12.806 0,11.356 -3.383,14.014 -20.296,14.981 -26.337,1.449 -39.627,2.899 -47.842,4.832 -20.055,5.074 -27.304,16.914 -27.304,45.667 0,19.571 4.109,31.653 13.29,38.176 10.631,7.491 24.163,9.907 55.574,9.907 33.827,0 47.599,-3.383 55.814,-13.773 C 38.66,30.445 41.317,20.78 41.317,7.249 L 41.076,0 Z" /></g><g
           transform="translate(958.085,1847.7166)"
           id="g42"><path
             id="path44"
             style="fill:#ffffff;fill-opacity:1;fill-rule:nonzero;stroke:none"
             d="m 0,0 -19.813,-70.071 h 40.109 z m -28.995,-101.24 -7.732,-27.787 H -81.669 L -33.345,32.136 H 32.136 L 81.185,-129.027 H 37.21 l -8.457,27.787 z" /></g><g
           transform="translate(1225.3145,1879.8523)"
           id="g46"><path
             id="path48"
             style="fill:#ffffff;fill-opacity:1;fill-rule:nonzero;stroke:none"
             d="m 0,0 v -101.723 c 0,-2.417 -1.208,-20.78 -1.449,-22.955 -1.692,-13.289 -8.699,-24.162 -19.572,-30.202 -10.631,-5.799 -21.021,-7.491 -48.325,-7.491 -25.612,0 -38.176,1.692 -48.807,6.524 -14.256,6.765 -20.297,16.672 -21.505,35.519 -0.484,4.832 -0.484,6.523 -0.484,15.222 V 0 h 43.251 v -105.106 c 0,-17.397 4.349,-20.296 28.995,-20.296 20.78,0 24.646,3.382 24.646,22.47 L -43.25,0 Z" /></g><g
           transform="translate(121.7349,73.4963)"
           id="g50"><path
             id="path52"
             style="fill:#ffffff;fill-opacity:1;fill-rule:nonzero;stroke:none"
             d="m 0,0 c 23.775,0 29.951,4.073 29.951,19.428 0,12.533 -2.161,17.233 -8.645,19.74 -2.162,0.939 -2.162,0.939 -17.601,1.566 H -36.744 V 0 Z m -1.852,79.275 c 18.526,0.314 18.526,0.314 21.613,2.194 4.941,2.193 7.102,8.146 7.102,17.86 0,14.1 -3.705,17.547 -19.144,17.547 H -36.744 V 79.275 Z m -90.162,83.662 H 19.761 c 45.39,0 61.755,-15.041 61.755,-55.461 0,-20.368 -3.396,-31.021 -12.968,-38.228 -7.102,-5.326 -12.351,-7.519 -21.306,-8.773 v -0.94 C 75.649,57.028 84.913,45.121 84.913,10.027 84.913,-31.96 68.856,-46.061 20.997,-46.061 H -92.014 Z" /></g><g
           transform="translate(321.2044,194.759)"
           id="g54"><path
             id="path56"
             style="fill:#ffffff;fill-opacity:1;fill-rule:nonzero;stroke:none"
             d="m 0,0 -25.319,-90.868 h 51.256 z m -37.053,-131.289 -9.88,-36.034 h -57.432 l 61.754,208.997 h 83.678 l 62.68,-208.997 H 47.551 l -10.807,36.034 z" /></g><g
           transform="translate(531.2019,100.1301)"
           id="g58"><path
             id="path60"
             style="fill:#ffffff;fill-opacity:1;fill-rule:nonzero;stroke:none"
             d="M 0,0 V -72.694 H -55.271 V 0 l -72.87,136.303 h 62.99 l 18.526,-40.108 9.263,-20.367 c 3.088,-6.58 5.867,-13.16 8.954,-20.054 h 1.853 c 3.088,6.58 6.485,14.101 9.263,20.054 l 9.573,20.367 19.143,40.108 h 63.607 z" /></g><g
           transform="translate(681.5786,152.7717)"
           id="g62"><path
             id="path64"
             style="fill:#ffffff;fill-opacity:1;fill-rule:nonzero;stroke:none"
             d="M 0,0 H 87.691 V -38.541 H 0 v -40.734 h 95.719 v -46.061 H -55.271 V 83.661 H 93.867 V 37.601 H 0 Z" /></g><g
           transform="translate(904.5737,130.2112)"
           id="g66"><path
             id="path68"
             style="fill:#ffffff;fill-opacity:1;fill-rule:nonzero;stroke:none"
             d="m 0,0 c 18.218,0 21.614,5.014 21.614,33.214 0,20.681 -4.014,25.067 -24.392,25.067 H -43.846 V 0 Z M -99.116,106.222 H 4.941 c 29.642,0 42.919,-2.821 54.961,-12.22 C 73.179,83.975 78.12,69.248 78.12,41.047 78.12,10.653 74.414,-3.447 64.225,-11.594 58.975,-15.98 54.036,-17.86 39.523,-21.62 v -2.193 c 25.32,-1.254 37.67,-15.041 37.053,-40.735 v -38.227 H 20.379 v 27.886 c 0.618,19.428 -6.793,28.201 -23.157,27.575 h -41.068 v -55.461 h -55.27 z" /></g><g
           transform="translate(1217.0243,27.4358)"
           id="g70"><path
             id="path72"
             style="fill:#ffffff;fill-opacity:1;fill-rule:nonzero;stroke:none"
             d="m 0,0 h -93.559 l -32.421,88.048 c -4.322,12.221 -8.954,24.441 -13.277,36.348 l -12.351,36.661 h -2.47 l 0.926,-19.428 c 1.235,-28.514 1.544,-33.214 1.544,-57.968 V 0 h -54.035 v 208.997 h 92.941 l 32.729,-88.048 c 4.323,-11.907 8.646,-23.501 13.278,-35.407 4.013,-11.907 8.027,-23.814 12.042,-35.408 h 2.162 l -0.618,18.801 c -1.235,27.574 -1.544,31.647 -1.544,56.401 v 83.661 H 0 Z" /></g><g
           transform="translate(722.0501,629.8099)"
           id="g74"><path
             id="path76"
             style="fill:#1f1e1d;fill-opacity:1;fill-rule:nonzero;stroke:none"
             d="m 0,0 c -0.208,11.027 -0.718,22.83 -2.999,34.467 -1.473,7.515 -2.978,15.035 -4.834,22.461 -2.978,11.913 -6.379,23.72 -9.366,35.631 -1.789,7.131 -3.905,14.14 -6.614,20.962 -1.593,4.013 -3.581,7.854 -6.352,11.208 -2.045,2.474 -4.329,4.668 -7.346,6.013 -1.567,0.7 -2.965,0.913 -4.551,0.07 -2.675,-1.421 -5.375,-2.812 -8.145,-4.032 -2.665,-1.172 -3.75,-3.119 -3.997,-5.958 -0.722,-8.296 -0.674,-16.593 -0.154,-24.884 0.3,-4.771 1.106,-9.51 1.41,-14.281 0.397,-6.246 -0.424,-12.408 -1.611,-18.551 -0.795,-4.114 -1.901,-8.08 -3.89,-11.76 -3.262,-6.036 -6.612,-12.025 -9.892,-18.052 -1.903,-3.497 -3.658,-7.078 -5.637,-10.531 -1.416,-2.471 -1.005,-4.622 0.756,-6.584 2.452,-2.732 4.898,-5.488 7.564,-8.003 5.805,-5.479 11.797,-10.759 17.613,-16.227 3.254,-3.06 6.552,-6.103 9.278,-9.677 5.208,-6.829 11.94,-11.943 18.93,-16.75 1.304,-0.897 2.789,-1.56 4.25,-2.196 5.202,-2.266 10.306,-0.429 12.973,4.595 1.301,2.451 1.861,5.067 1.931,7.83 C -0.485,-16.431 -0.246,-8.615 0,0 m -173.029,137.886 c -2.458,-1.709 -4.977,-3.666 -7.688,-5.302 -4.924,-2.971 -9.914,-5.841 -14.962,-8.595 -12.424,-6.779 -21.97,-16.337 -28.509,-28.919 -2.728,-5.248 -5.114,-10.631 -7.237,-16.15 -2.991,-7.776 -5.009,-15.83 -7.044,-23.878 -0.837,-3.311 -0.514,-6.706 0.349,-9.981 0.771,-2.928 1.793,-5.792 2.744,-8.671 2.052,-6.215 4.184,-12.393 5.239,-18.902 0.56,-3.454 1.658,-6.824 2.556,-10.221 1.06,-4.011 2.287,-7.981 3.226,-12.019 1.919,-8.247 3.848,-16.499 5.476,-24.807 1.167,-5.954 2.544,-11.871 3.297,-17.915 0.829,-6.656 1.965,-13.274 3.023,-19.9 0.855,-5.362 1.696,-10.725 2.65,-16.073 0.758,-4.245 1.625,-8.47 2.412,-12.709 0.874,-4.705 1.787,-9.421 3.055,-14.029 0.929,-3.376 1.416,-6.857 2.832,-10.138 2.787,-6.458 8.317,-10.228 15.346,-10.157 2.452,0.025 4.767,0.641 7.028,1.397 8.277,2.769 15.169,7.281 19.475,15.241 4.34,8.02 7.982,16.311 11.134,24.869 4.156,11.284 6.987,22.919 9.568,34.611 1.793,8.121 3.65,16.186 6.552,23.999 3.789,10.203 8.264,20.067 13.861,29.411 1.642,2.741 3.407,5.429 4.804,8.292 4.483,9.183 8.853,18.421 13.204,27.666 4.69,9.966 9.297,19.971 14.847,29.502 3.277,5.627 4.952,11.742 5.422,18.186 0.616,8.464 0.209,16.946 0.253,25.419 0.005,0.955 -0.092,1.923 -0.256,2.865 -1.726,9.94 -6.546,17.538 -16.211,21.534 -4.492,1.857 -9.153,2.762 -13.983,2.882 -2.396,0.059 -4.798,0.099 -7.145,-0.576 -2.795,-0.805 -3.389,-1.303 -3.583,-4.295 -0.342,-5.282 -1.317,-10.456 -2.234,-15.652 -1.726,-9.783 -4.483,-19.27 -7.778,-28.625 -3.339,-9.477 -7.009,-18.829 -9.794,-28.511 -2.426,-8.436 -5.328,-16.745 -8.288,-25.014 -2.801,-7.824 -6.054,-15.478 -10.506,-22.547 -3.834,-6.087 -7.342,-12.35 -10.494,-18.819 -1.258,-2.583 -2.636,-5.11 -4.009,-7.635 -0.503,-0.927 -1.242,-1.472 -2.335,-0.704 -0.555,1.203 -0.414,2.491 -0.407,3.763 0.02,3.358 0.049,6.717 0.064,10.075 0.02,4.475 0.173,8.935 0.478,13.408 0.339,4.981 1.483,9.794 2.236,14.685 0.9,5.841 1.898,11.668 2.872,17.497 1.159,6.935 2.47,13.847 3.472,20.804 1.048,7.272 1.875,14.578 2.663,21.884 0.445,4.122 0.445,8.294 0.948,12.407 1.199,9.816 -0.063,19.455 -1.886,29.049 -0.629,3.311 -2.155,6.349 -3.97,9.203 -0.605,0.95 -1.304,1.834 -2.767,2.095 M -536.88,358.95 c 0.822,1.24 1.589,1.445 2.39,1.566 8.528,1.287 17.111,2.139 25.641,3.469 5.837,0.91 11.628,2.077 17.459,3.009 9.145,1.461 18.183,3.583 27.306,5.201 8.176,1.45 16.39,2.707 24.617,3.84 5.054,0.696 10.16,1.045 15.25,1.46 3.652,0.298 7.315,0.508 10.977,0.649 6.554,0.253 13.108,-0.02 19.619,-0.701 5.555,-0.58 11.171,-0.67 16.656,-1.938 2.813,-0.65 5.722,-0.898 8.587,-0.593 5.396,0.574 10.415,2.132 13.487,7.088 1.867,3.012 3.091,6.309 3.079,9.948 -0.013,3.838 0.045,7.677 -0.034,11.514 -0.067,3.208 -0.682,6.348 -1.418,9.47 -1.995,8.46 -7.514,13.901 -15.081,17.51 -4.81,2.294 -10.032,3.202 -15.263,3.883 -3.636,0.473 -7.272,0.662 -10.984,0.17 -5.547,-0.734 -11.06,-1.458 -16.432,-3.122 -3.045,-0.943 -6.164,-1.718 -9.301,-2.287 -8.96,-1.627 -17.951,-3.085 -26.921,-4.658 -5.993,-1.051 -11.914,-2.482 -17.579,-4.682 -5.649,-2.194 -11.145,-4.773 -16.94,-6.602 -5.78,-1.824 -11.528,-3.749 -17.308,-5.572 -5.02,-1.583 -10.063,-3.09 -15.099,-4.621 -5.957,-1.81 -11.9,-3.67 -17.881,-5.399 -6.284,-1.816 -12.602,-3.511 -18.911,-5.242 -6.471,-1.775 -12.927,-3.612 -19.428,-5.273 -9.44,-2.414 -18.884,-4.824 -28.467,-6.629 -0.626,-0.118 -1.24,-0.313 -1.849,-0.506 -6.091,-1.939 -12.037,-4.246 -17.935,-6.716 -4.408,-1.846 -8.911,-3.563 -13.514,-4.816 -4.215,-1.148 -8.231,-2.651 -11.931,-4.875 -3.856,-2.318 -7.299,-5.185 -9.663,-9.138 -2.972,-4.973 -2.428,-9.996 1.776,-13.864 2.345,-2.157 4.913,-4.09 7.499,-5.962 5.059,-3.663 10.805,-5.739 17.011,-5.565 7.951,0.223 15.587,-1.569 23.251,-3.038 5.491,-1.052 11.017,-1.89 16.502,-2.955 1.403,-0.273 2.86,-0.358 4.293,-0.365 6.403,-0.032 12.708,-0.768 19.057,-1.686 8.416,-1.217 16.63,-3.232 24.81,-5.329 9.266,-2.375 18.453,-5.169 27.484,-8.324 9.633,-3.365 19.075,-7.288 28.543,-11.107 8.877,-3.582 17.67,-7.373 26.521,-11.021 3.84,-1.582 7.799,-2.762 11.919,-3.44 4.885,-0.804 9.743,-1.777 14.614,-2.669 4.558,-0.836 9.111,-1.699 13.678,-2.482 5.512,-0.945 11.059,-1.696 16.549,-2.75 9.109,-1.748 18.223,-3.31 27.529,-3.59 5.639,-0.169 11.198,0.118 16.538,2.017 5.436,1.933 9.268,5.411 10.632,11.328 1.41,6.113 2.202,12.264 2.144,18.533 -0.038,4.183 -0.591,8.24 -2.006,12.227 -1.963,5.531 -5.302,9.737 -10.537,12.475 -4.048,2.117 -8.424,3.034 -12.868,3.443 -5.577,0.514 -11.118,1.176 -16.635,2.144 -6.323,1.109 -12.396,2.895 -18.153,5.785 -2.854,1.433 -5.885,2.402 -9.008,3.207 -8.116,2.094 -16.453,2.487 -24.705,2.905 -9.24,0.469 -18.508,0.895 -27.79,0.762 -12.463,-0.18 -24.942,-0.297 -37.38,0.844 -4.451,0.408 -8.931,0.758 -13.315,1.577 -4.536,0.848 -9.061,1.932 -13.256,4.018 -3.374,1.677 -6.02,4.06 -7.826,7.475 M 77.794,784.383 c 0.749,-0.837 0.424,-1.764 0.186,-2.679 -2.451,-9.429 -4.927,-18.851 -7.351,-28.287 -1.948,-7.581 -4.343,-15.031 -7.049,-22.359 -4.092,-11.084 -8.814,-21.906 -14.107,-32.489 -7.728,-15.456 -16.296,-30.415 -25.944,-44.742 -6.248,-9.28 -12.748,-18.39 -19.111,-27.593 -5.364,-7.76 -10.521,-15.654 -14.481,-24.247 -1.874,-4.067 -3.391,-8.214 -3.179,-12.881 0.163,-3.589 1.698,-5.956 4.725,-7.723 3.457,-2.019 7.235,-2.377 11.068,-2.583 6.995,-0.378 13.649,1.408 20.202,3.496 7.924,2.524 15.52,5.898 22.817,9.878 5.05,2.755 9.938,5.79 14.048,9.931 1.609,1.62 3.044,3.383 3.82,5.464 2.001,5.367 5.411,9.756 9.182,13.913 3.865,4.261 7.928,8.346 11.702,12.685 6.127,7.044 11.05,14.866 14.363,23.636 2.152,5.697 3.541,11.62 4.726,17.569 1.218,6.112 2.559,12.188 3.981,18.254 0.984,4.197 2.047,8.452 2.292,12.726 0.384,6.696 0.405,13.447 0.011,20.141 -0.283,4.807 -0.23,9.541 0.025,14.339 0.4,7.511 2.601,14.402 5.843,21.086 1.809,3.731 3.47,7.54 5.029,11.382 3.975,9.796 6.758,19.923 8.822,30.305 1.736,8.732 1.707,17.475 1.505,26.268 -0.026,1.113 -0.21,2.234 -0.432,3.328 -1.163,5.732 -2.995,11.157 -7.733,15.022 -4.575,3.731 -9.812,5.351 -15.661,4.052 -4.052,-0.9 -7.989,-2.26 -11.68,-4.214 -16.825,-8.907 -31.572,-20.545 -44.772,-34.195 -1.894,-1.959 -3.439,-4.223 -4.692,-6.643 C 38.911,793.626 29.988,781.462 18.973,770.782 8.051,760.193 -4.339,751.935 -18.402,746.166 c -3.986,-1.635 -8.106,-3.008 -11.929,-4.962 -12.276,-6.274 -22.671,-14.841 -30.875,-26.009 -5.028,-6.846 -9.252,-14.171 -13.435,-21.541 -6.967,-12.274 -10.157,-25.422 -9.6,-39.5 0.242,-6.129 1.495,-12.044 4.029,-17.638 2.611,-5.762 6.759,-10.009 12.697,-12.408 1.71,-0.691 3.352,-0.848 5.092,-0.036 2.746,1.28 5.557,2.419 8.313,3.678 4.985,2.277 9.566,5.136 13.305,9.228 2.802,3.067 5.617,6.125 8.52,9.097 5.703,5.838 11.08,11.979 16.101,18.39 11.83,15.101 23.404,30.403 35.146,45.573 8.22,10.62 16.338,21.33 24.9,31.67 5.738,6.931 10.99,14.167 15.396,21.948 4.409,7.786 10.139,14.302 16.834,20.089 0.491,0.424 0.978,0.82 1.702,0.638 M 19.303,472.061 c 0.787,-0.668 1.769,-0.471 2.715,-0.55 3.537,-0.294 6.993,0.526 10.493,0.742 6.052,0.373 12.136,0.68 18.118,1.594 6.308,0.963 12.65,1.741 18.927,2.991 3.596,0.716 7.188,1.446 10.769,2.239 4.518,1 9.096,1.767 13.56,2.963 8.321,2.23 16.626,4.522 24.778,7.354 9.684,3.364 19.043,7.346 27.555,13.157 2.102,1.435 4.313,2.738 6.576,3.905 9.381,4.84 19.658,6.505 29.911,8.094 6.636,1.028 13.245,2.058 19.716,3.905 7.535,2.152 14.031,5.954 19.661,11.421 5.962,5.789 12.218,11.253 18.942,16.175 10.997,8.051 22.942,14.497 34.979,20.776 10.042,5.238 20.287,10.092 30.283,15.413 9.447,5.03 18.707,10.393 26.917,17.398 2.356,2.011 4.319,4.28 5.975,6.804 2.349,3.581 1.773,7.834 -1.144,10.966 -5.747,6.169 -12.922,9.793 -20.992,11.811 -4.493,1.123 -8.985,2.255 -13.509,3.238 -5.306,1.153 -10.623,2.293 -15.978,3.175 -6.143,1.011 -12.407,1.386 -18.483,2.672 -6.752,1.429 -13.595,1.901 -20.391,2.838 -1.567,0.216 -3.234,0.265 -4.78,-0.018 -4.742,-0.87 -9.555,-0.743 -14.322,-1.038 -9.586,-0.594 -19.054,-2.013 -28.529,-3.394 -7.271,-1.061 -14.562,-2.152 -21.721,-3.771 -10.743,-2.429 -21.332,-5.413 -31.667,-9.359 -14.983,-5.72 -29.22,-12.78 -42.531,-21.737 -4.858,-3.27 -8.81,-7.326 -11.996,-12.217 -2.093,-3.212 -4.253,-6.396 -6.607,-9.417 -2.753,-3.533 -5.914,-6.662 -9.631,-9.269 -6.155,-4.315 -13.24,-6.245 -20.291,-8.24 -4.138,-1.171 -8.396,-1.923 -12.599,-2.867 -8.102,-1.82 -16.205,-3.639 -24.306,-5.464 -6.403,-1.443 -12.59,-3.515 -18.428,-6.538 -2.273,-1.177 -4.355,-2.644 -6.179,-4.486 -2.141,-2.163 -3.244,-4.708 -3.253,-7.735 -0.018,-5.916 -0.027,-11.833 -0.033,-17.749 -10e-4,-0.478 0.017,-0.962 0.085,-1.434 0.181,-1.253 0.928,-2.032 2.161,-2.22 0.941,-0.143 1.918,-0.232 2.862,-0.15 3.498,0.306 7.026,0.48 10.475,1.09 9.591,1.697 19.152,3.626 28.502,6.352 11.649,3.395 23.16,7.248 34.359,11.968 12.521,5.278 24.79,11.051 36.196,18.499 8.183,5.343 16.038,11.087 22.023,18.993 0.379,0.501 0.835,0.97 1.338,1.343 0.368,0.273 0.867,0.421 1.232,0.163 0.702,-0.511 0.67,-1.15 0.627,-1.783 -0.118,-1.753 -0.371,-3.507 -0.346,-5.257 0.06,-4.121 -1.334,-7.889 -2.95,-11.519 -2.817,-6.33 -6.937,-11.793 -11.744,-16.797 -7.693,-8.01 -16.535,-14.556 -25.742,-20.654 C 78.492,508.228 65.452,501.109 52.47,493.903 42.697,488.479 32.914,483.08 23.523,477.006 c -1.34,-0.866 -2.658,-1.78 -3.902,-2.776 -0.664,-0.532 -0.811,-1.339 -0.318,-2.169 m -437.766,127.698 c 1.113,0.981 2.038,0.141 2.993,-0.363 13.415,-7.076 27.198,-13.394 41.051,-19.532 11.665,-5.169 23.519,-9.923 35.379,-14.634 9.932,-3.946 19.998,-7.557 29.999,-11.33 5.378,-2.028 10.797,-3.96 16.104,-6.162 7.253,-3.01 13.913,-7.137 20.447,-11.453 16.195,-10.698 30.592,-23.61 44.938,-36.584 5.923,-5.358 11.808,-10.761 17.822,-16.017 3.776,-3.301 5.053,-2.769 5.8,2.338 0.438,2.997 0.575,6.042 0.763,9.071 0.278,4.483 0.006,8.972 -1.003,13.325 -2.653,11.445 -8.997,20.731 -17.614,28.479 -8.007,7.2 -17.083,12.851 -26.742,17.585 -3.438,1.685 -6.842,3.438 -10.24,5.204 -11.809,6.135 -22.734,13.635 -33.306,21.671 -9.936,7.552 -20.303,14.448 -31.202,20.535 -14.08,7.863 -28.205,15.645 -42.252,23.567 -15.055,8.492 -29.469,17.963 -42.88,28.891 -10.813,8.812 -22.407,16.433 -34.605,23.155 -11.772,6.487 -23.113,13.61 -33.782,21.822 -6.961,5.357 -14.148,10.429 -21.797,14.799 -4.599,2.627 -9.34,4.863 -14.652,5.648 -4.368,0.645 -7.839,-0.625 -10.249,-4.493 -2.369,-3.803 -3.418,-7.97 -2.969,-12.351 0.372,-3.635 1.035,-7.296 2.078,-10.794 2.236,-7.499 5.348,-14.685 8.6,-21.796 3.655,-7.988 6.557,-16.259 9.41,-24.551 2.388,-6.94 4.698,-13.908 7.142,-20.829 2.338,-6.62 4.803,-13.195 7.213,-19.789 3.396,-9.29 6.778,-18.584 10.193,-27.867 4.385,-11.922 11.586,-22.039 20.539,-30.864 4.764,-4.695 10.035,-8.911 15.311,-13.044 7.549,-5.912 15.336,-11.52 22.977,-17.317 4.839,-3.672 9.599,-7.454 13.995,-11.656 8.446,-8.075 16.609,-16.419 23.127,-26.186 2.256,-3.38 5.458,-4.847 9.253,-5.193 8.811,-0.803 17.195,0.356 24.692,5.577 2.512,1.749 5.358,2.566 8.5,2.898 5.455,0.578 10.845,-0.162 16.263,-0.185 2.072,-0.009 4.155,-0.185 6.21,-0.461 8.567,-1.152 17.161,-1.661 25.809,-1.533 3.586,0.053 6.97,0.876 10.335,1.884 2.376,0.711 4.213,2.271 5.561,4.34 1.004,1.543 0.806,3.148 -0.659,4.247 -1.785,1.339 -3.659,2.581 -5.592,3.697 -11.202,6.468 -22.429,12.894 -33.655,19.32 -15.397,8.813 -30.634,17.867 -44.901,28.473 -12.229,9.09 -23.312,19.426 -33.561,30.656 -7.441,8.153 -13.973,17.049 -20.418,25.999 -0.37,0.514 -0.68,1.086 -0.425,1.803 m 99.579,-492.743 c 0.068,2.622 1.287,5.001 2.202,7.497 4.727,12.891 9.648,25.702 15.104,38.304 3.051,7.045 6.328,13.983 10.694,20.318 4.172,6.054 8.551,11.965 12.831,17.944 4.46,6.23 9.427,12.13 12.672,19.157 1.872,4.052 3.744,8.108 5.454,12.23 3.301,7.957 6.392,15.99 9.163,24.157 2.567,7.567 4.953,15.173 6.698,22.968 0.453,2.021 0.722,4.099 0.883,6.165 0.219,2.823 -0.019,4.22 -3.638,4.941 -5.499,1.095 -11.048,1.68 -16.571,2.509 -6.772,1.016 -13.371,0.182 -20.025,-0.584 -3.852,-0.444 -7.487,-1.706 -10.977,-3.284 -9.742,-4.403 -16.427,-12.002 -21.403,-21.209 -3.42,-6.328 -6.03,-13.04 -8.653,-19.727 -2.631,-6.708 -5.581,-13.234 -9.668,-19.207 -1.171,-1.711 -2.209,-3.518 -3.245,-5.317 -7.41,-12.873 -14.488,-25.925 -21.383,-39.081 -5.781,-11.029 -11.745,-21.954 -16.939,-33.288 -4.194,-9.151 -7.783,-18.539 -11.361,-27.928 -4.04,-10.6 -8.203,-21.13 -13.671,-31.09 -4.242,-7.727 -9.046,-15.088 -14.989,-21.629 -3.762,-4.141 -7.61,-8.213 -11.59,-12.143 -3.664,-3.618 -6.855,-7.615 -9.764,-11.813 -3.565,-5.146 -6.332,-10.733 -7.754,-16.893 -1.178,-5.102 -0.931,-10.06 0.842,-15.081 2.943,-8.334 13.493,-13.692 21.804,-11.424 5.432,1.482 10.574,3.607 15.694,5.835 4.552,1.981 9.142,3.875 13.975,4.996 8.094,1.878 16.154,3.866 24.006,6.594 8.931,3.104 17.481,6.991 25.182,12.579 4.685,3.399 9.838,5.973 15.208,8.053 11.242,4.353 23.064,6.409 34.874,8.45 5.512,0.952 11.068,1.649 16.575,2.627 2.824,0.502 5.61,1.281 8.363,2.105 1.517,0.455 3.004,1.136 4.369,1.943 1.803,1.065 3.396,2.435 3.948,4.605 0.63,2.479 1.298,4.953 1.788,7.461 0.948,4.862 1.641,9.778 2.703,14.614 1.269,5.772 2.545,11.555 4.528,17.143 1.816,5.117 3.63,10.235 5.475,15.342 1.846,5.109 3.936,10.102 6.67,14.824 4.825,8.335 11.093,15.202 19.618,19.875 2.521,1.383 5.048,2.772 7.465,4.327 4.526,2.91 7.468,6.977 8.151,12.398 1.837,14.578 3.159,29.208 4.074,43.872 0.189,3.03 0.102,6.079 0.348,9.103 0.649,7.959 1.157,15.919 1.112,23.911 -0.046,7.998 0.053,15.997 -0.039,23.994 -0.041,3.506 -0.368,7.011 -0.634,10.511 -0.076,1 -0.495,1.868 -2.152,1.524 -0.7,-1.129 -1.585,-2.434 -2.347,-3.807 -1.859,-3.353 -3.639,-6.748 -5.49,-10.105 -9.797,-17.773 -20.111,-35.246 -30.585,-52.625 -6.516,-10.811 -13.06,-21.609 -20.116,-32.082 -3.495,-5.188 -7.378,-10.023 -12.312,-13.981 -3.612,-2.897 -6.914,-6.128 -9.962,-9.664 -7.304,-8.472 -14.816,-16.765 -22.249,-25.125 -3.503,-3.941 -7.09,-7.811 -10.494,-11.836 -1.355,-1.603 -2.829,-2.963 -4.462,-3.953 m 112.332,451.391 c 0.703,0.635 0.868,1.417 0.972,2.215 0.802,6.192 2.219,12.247 3.85,18.27 1.378,5.088 2.66,10.213 3.686,15.381 1.276,6.422 2.243,12.873 2.216,19.491 -0.041,10.101 -2.254,19.576 -6.521,28.706 -2.628,5.624 -5.008,11.392 -7.073,17.246 -2.6,7.376 -4.695,14.929 -7.136,22.363 -3.041,9.267 -5.127,18.786 -7.441,28.237 -1.63,6.658 -2.603,13.477 -3.879,20.222 -1.912,10.106 -1.102,20.397 -2.054,30.573 -0.385,4.124 -0.101,8.312 -0.093,12.471 0.003,1.113 0.038,2.238 0.212,3.334 0.058,0.358 0.567,0.833 0.936,0.902 0.391,0.073 0.955,-0.168 1.277,-0.457 1.007,-0.904 1.131,-2.231 1.523,-3.444 1.323,-4.09 1.713,-8.555 4.183,-12.182 2.934,-4.31 4.43,-9.168 6.093,-13.994 1.303,-3.782 2.826,-7.472 4.869,-10.928 3.112,-5.265 6.907,-10.006 11.327,-14.207 4.334,-4.12 7.753,-8.907 10.846,-13.968 3.083,-5.046 5.783,-10.298 8.369,-15.61 3.231,-6.634 7.058,-12.843 11.942,-18.442 5.375,-6.16 11.449,-11.611 17.07,-17.513 1.874,-1.968 3.9,-3.821 5.567,-5.952 6.884,-8.797 14.529,-17.045 19.78,-27.039 0.294,-0.561 0.656,-1.101 1.068,-1.581 0.829,-0.965 2.245,-0.827 2.81,0.252 0.221,0.421 0.353,0.888 0.543,1.327 2.61,6.039 4.091,12.42 5.641,18.775 1.097,4.497 2.003,9.04 3.1,13.536 1.099,4.499 2.232,8.993 3.526,13.438 1.696,5.822 3.152,11.73 5.636,17.294 2.537,5.685 5.094,11.362 7.693,17.019 1.74,3.787 3.033,7.704 4.118,11.731 0.873,3.242 0.18,6.004 -1.543,8.648 -1.573,2.412 -3.317,4.69 -5.385,6.726 -4.559,4.488 -8.998,9.1 -13.59,13.553 -8.795,8.527 -15.977,18.194 -21.77,29.014 -10.252,19.146 -23.341,36.241 -38.544,51.723 -5.603,5.706 -11.32,11.3 -16.946,16.985 -1.571,1.588 -3.143,3.211 -4.467,5.001 -4.502,6.089 -9.835,11.356 -15.751,16.025 -12.668,9.998 -26.5,17.758 -42.27,21.792 -3.766,0.963 -7.54,1.416 -11.394,1.257 -7.856,-0.325 -12.375,-4.817 -12.641,-12.732 -0.156,-4.633 0.02,-9.276 -0.036,-13.914 -0.07,-5.914 -0.285,-11.836 -1.136,-17.685 -0.943,-6.481 -1.56,-12.998 -2.725,-19.461 -1.732,-9.602 -3.791,-19.121 -6.02,-28.611 -1.499,-6.38 -3.173,-12.728 -4.388,-19.162 -1.033,-5.476 -2.275,-10.976 -1.913,-16.624 0.163,-2.542 0.556,-5.07 0.682,-7.612 0.283,-5.742 0.443,-11.491 0.694,-17.235 0.202,-4.627 0.65,-9.251 0.643,-13.877 -0.007,-4.566 0.921,-8.931 2.449,-13.128 2.838,-7.796 5.953,-15.492 8.991,-23.215 5.723,-14.554 11.984,-28.878 18.369,-43.152 1.949,-4.358 4.207,-8.59 5.409,-13.29 1.74,-6.804 3.783,-13.53 5.664,-20.299 1.635,-5.884 4.125,-11.404 7.186,-16.658 7.961,-13.665 19.849,-23.203 33.125,-31.248 0.827,-0.501 1.772,-0.751 2.651,-0.287 M 176.247,126.634 c -1.451,-1.233 -2.876,-0.82 -4.263,-0.614 -5.533,0.822 -11.062,1.634 -16.674,1.733 -1.752,0.031 -3.529,0.2 -5.243,0.554 -7.504,1.547 -15.066,2.841 -22.424,5.058 -3.203,0.965 -6.461,1.754 -9.704,2.586 -4.328,1.109 -8.681,2.122 -12.994,3.283 -6.631,1.786 -13.264,3.571 -19.846,5.526 -6.88,2.045 -13.694,4.29 -20.292,7.171 -8.36,3.65 -16.141,8.398 -24.225,12.571 -10.07,5.199 -20.119,10.443 -30.707,14.518 -3.693,1.421 -7.379,3.022 -11.52,2.986 -3.496,-0.031 -5.726,-1.706 -7.097,-4.718 -0.66,-1.451 -1.119,-2.994 -1.653,-4.501 -2.801,-7.905 -3.655,-15.801 -0.335,-23.835 2.96,-7.162 6.755,-13.758 12.139,-19.377 6.255,-6.527 13.686,-11.502 21.38,-16.117 7.806,-4.681 15.667,-9.271 23.443,-14 3.153,-1.916 6.446,-3.554 9.87,-4.82 9.896,-3.658 19.971,-6.746 30.329,-8.861 4.068,-0.831 8.077,-1.941 12.138,-2.807 4.529,-0.967 9.077,-1.855 13.634,-2.681 6.285,-1.138 12.582,-2.222 18.885,-3.263 7.092,-1.172 14.2,-2.248 21.293,-3.41 5.36,-0.878 10.725,-1.742 16.058,-2.767 4.55,-0.875 9.06,-1.959 13.584,-2.969 3.583,-0.801 7.162,-1.622 10.739,-2.449 4.352,-1.006 8.705,-2.012 13.05,-3.049 4.345,-1.037 8.669,-2.163 13.024,-3.156 4.517,-1.029 9.047,-2.002 13.592,-2.897 5.958,-1.173 11.903,-2.476 17.912,-3.304 7.606,-1.048 15.171,-2.204 22.654,-3.965 3.883,-0.914 7.88,-1.314 11.905,-1.181 3.291,0.108 6.301,1.042 8.969,2.949 4.726,3.377 6.892,7.966 5.791,13.723 -0.565,2.957 -1.419,5.875 -2.675,8.679 -3.348,7.468 -7.65,14.358 -12.314,21.046 -7.278,10.435 -16.418,19.149 -25.698,27.72 -5.754,5.314 -11.555,10.57 -17.086,16.124 -6.444,6.471 -13.575,12.116 -21.164,17.212 -9.444,6.343 -19.616,11.336 -29.746,16.422 -8.128,4.08 -16.344,7.981 -24.191,12.615 -16.615,9.812 -29.944,22.739 -38.961,39.978 -3.629,6.939 -7.981,13.483 -12.576,19.822 -7.609,10.497 -15.84,20.466 -25.664,29.031 -6.783,5.914 -14.011,11.114 -22.28,14.767 -6.191,2.735 -12.616,4.617 -19.419,4.711 -8.476,0.117 -16.958,0.184 -25.43,-0.029 -7.544,-0.189 -14.947,-1.373 -21.816,-4.807 -0.711,-0.356 -1.446,-0.699 -2.209,-0.909 -5.664,-1.567 -8.43,-5.701 -9.183,-11.121 -0.989,-7.114 -2.002,-14.27 -1.546,-21.488 0.231,-3.655 0.682,-7.333 2.063,-10.769 1.726,-4.299 4.92,-7.425 8.645,-10.018 7.738,-5.387 15.481,-10.767 23.281,-16.064 12.556,-8.527 25.191,-16.931 38.335,-24.544 3.327,-1.927 6.217,-4.465 9.03,-7.082 3.041,-2.829 6.104,-5.634 9.213,-8.387 2.642,-2.339 5.6,-4.224 8.71,-5.9 9.031,-4.864 18.675,-8.276 28.26,-11.773 10.033,-3.659 20.136,-7.128 29.977,-11.282 4.708,-1.986 9.316,-4.242 13.398,-7.371 5.707,-4.375 11.344,-8.841 16.996,-13.287 0.223,-0.175 0.295,-0.543 0.638,-1.213 M 342,350.891 c -0.75,-0.881 -1.525,-1.154 -2.307,-1.207 -4.809,-0.324 -9.445,-1.636 -14.157,-2.496 -4.707,-0.86 -9.341,-2.12 -14.006,-3.209 -5.324,-1.243 -10.075,-3.987 -15.173,-5.843 -8.401,-3.059 -16.747,-6.181 -25.464,-8.301 -8.592,-2.089 -17.314,-3.049 -26.084,-3.29 -7.328,-0.202 -14.671,-0.123 -22.03,0.364 -8.907,0.589 -17.87,0.092 -26.812,0.73 -5.23,0.372 -10.519,0.285 -15.788,-0.502 -3.93,-0.587 -7.962,-0.461 -11.945,-0.719 -5.138,-0.332 -10.029,-1.663 -14.862,-3.441 -3.888,-1.431 -6.044,-3.713 -6.205,-8.028 -0.119,-3.182 -0.953,-6.348 -2.319,-9.244 -2.185,-4.633 -4.905,-8.939 -8.211,-12.901 -2.964,-3.551 -6.021,-7.059 -8.425,-11.041 -2.422,-4.014 -3.377,-8.17 -1.529,-12.784 0.833,-2.08 2.104,-3.671 3.976,-4.573 2.14,-1.031 4.445,-2.001 6.77,-2.31 5.689,-0.758 11.431,-1.55 17.15,-1.535 7.489,0.02 14.974,0.851 22.465,1.243 5.283,0.277 10.456,1.458 15.704,1.868 6.239,0.488 12.31,1.928 18.484,2.764 3.788,0.512 7.525,1.472 11.246,2.387 4.493,1.105 8.962,2.317 13.412,3.588 5.521,1.577 11.006,3.278 16.515,4.898 5.815,1.711 11.567,3.73 17.482,4.979 4.982,1.051 9.981,2.113 15.041,2.903 8.411,1.312 16.824,1.942 25.302,1.844 9.565,-0.11 18.744,1.943 27.726,4.896 8.65,2.844 16.809,6.902 24.964,10.916 11.321,5.573 22.754,10.872 34.949,14.276 4.149,1.158 8.341,2.361 12.595,2.888 5.376,0.666 10.794,1.199 16.253,1.098 6.384,-0.118 12.732,0.215 19.117,0.916 9.183,1.008 17.299,4.422 24.914,9.249 5.38,3.411 8.437,10.301 5.022,17.195 -1.431,2.891 -3.239,5.51 -5.705,7.616 -6.258,5.348 -13.293,9.398 -21,12.237 -4.692,1.729 -9.03,4.013 -12.937,7.139 -1.746,1.398 -3.598,2.661 -5.37,4.027 -3.468,2.671 -7.375,4.344 -11.547,5.642 -6.098,1.895 -12.047,4.219 -17.747,7.154 -3.826,1.97 -7.618,3.993 -11.527,5.822 -11.361,5.314 -23.305,8.786 -35.476,11.431 -8.733,1.899 -17.573,3.357 -26.377,4.95 -12.087,2.186 -24.235,4.138 -36.07,7.624 -8.875,2.613 -17.895,4.732 -26.836,7.127 -6.781,1.817 -13.493,3.914 -20.318,5.541 -9.939,2.368 -19.825,4.947 -29.873,6.896 -8.318,1.614 -16.605,3.314 -25.037,4.208 -3.807,0.404 -7.63,0.73 -11.427,1.129 -4.678,0.49 -9.285,0.276 -13.855,-0.293 -4.084,-0.508 -8.199,-1.145 -12.029,-2.996 -5.457,-2.639 -8.621,-6.646 -9.564,-12.785 -1,-6.515 -0.693,-13.064 -1.193,-19.587 -0.757,-9.885 0.435,-19.797 0.524,-29.703 0.007,-0.793 0.207,-1.584 0.312,-2.377 0.209,-1.57 1.109,-2.614 2.504,-3.268 0.723,-0.338 1.437,-0.724 2.197,-0.948 7.196,-2.119 14.358,-4.371 21.614,-6.265 8.958,-2.338 17.997,-4.371 27.001,-6.538 2.641,-0.635 5.261,-1.38 7.926,-1.892 8.168,-1.572 16.414,-2.573 24.721,-3.034 7.489,-0.416 14.972,-0.987 22.485,-0.743 2.876,0.093 5.757,0.011 8.636,0.018 0.959,0.002 1.931,-0.058 2.875,0.067 7.779,1.033 15.597,1.188 23.428,1.16 8.796,-0.032 17.592,0.014 26.389,-0.021 1.75,-0.007 3.505,-0.17 5.248,-0.356 7.011,-0.748 13.781,-2.711 20.65,-4.171 1.344,-0.285 2.833,-0.588 3.608,-2.389 M 187.035,476.042 c 1.181,-1.895 3.299,-2.346 5.207,-2.901 7.82,-2.276 15.699,-4.348 23.523,-6.612 9.346,-2.705 18.605,-5.654 27.686,-9.206 5.337,-2.087 10.743,-4.047 16.229,-5.8 6.525,-2.085 13.031,-4.25 19.594,-6.221 6.73,-2.021 13.488,-3.956 20.277,-5.767 7.405,-1.974 14.84,-3.848 22.299,-5.606 7.927,-1.869 15.904,-3.519 23.845,-5.327 6.531,-1.488 13.038,-3.075 19.559,-4.605 4.198,-0.985 8.382,-2.037 12.606,-2.895 6.269,-1.272 12.406,-3.055 18.489,-4.96 5.477,-1.714 10.91,-3.603 16.208,-5.888 9.266,-3.997 18.165,-8.68 26.919,-13.667 7.218,-4.113 14.394,-8.295 21.735,-12.197 8.045,-4.277 15.892,-8.919 22.789,-14.976 4.918,-4.317 8.385,-9.6 10.423,-15.8 0.34,-1.035 0.242,-2.212 0.363,-3.321 0.841,-7.724 -1.224,-14.832 -4.384,-21.777 -4.787,-10.521 -12.339,-18.215 -23.086,-22.468 -3.822,-1.512 -7.868,-2.472 -12.076,-2.901 -7.011,-0.713 -14.039,-0.648 -21.04,-1.096 -7.607,-0.487 -15.376,-0.431 -22.701,-2.957 -5.569,-1.921 -10.953,-4.34 -16.241,-6.979 -8.295,-4.139 -16.246,-8.899 -24.427,-13.228 -7.746,-4.099 -15.931,-7.199 -24.485,-9.439 -5.118,-1.34 -10.298,-2.427 -15.46,-3.141 -5.845,-0.807 -11.645,-1.952 -17.474,-2.815 -6.304,-0.935 -12.67,-1.589 -18.925,-2.846 -2.045,-0.411 -4.071,-0.913 -6.145,-0.91 -3.091,0.005 -5.961,-1.113 -8.965,-1.547 -6.005,-0.867 -12.021,-1.878 -18.022,-2.524 -6.352,-0.684 -12.571,-2.116 -18.951,-2.647 -6.656,-0.554 -13.234,-2.044 -19.847,-3.126 -1.259,-0.206 -2.516,-0.429 -3.777,-0.625 -6.624,-1.032 -13.262,-1.978 -19.869,-3.108 -6.761,-1.156 -13.479,-2.544 -20.264,-3.588 -4.092,-0.63 -8.086,-1.854 -12.23,-2.295 -1.075,-0.115 -2.205,-0.545 -2.548,-1.855 0.054,-1.263 0.987,-1.969 1.79,-2.723 6.174,-5.798 12.364,-11.58 18.554,-17.361 5.722,-5.345 11.438,-10.697 17.181,-16.019 6.795,-6.297 13.63,-12.551 20.422,-18.853 3.047,-2.827 6.006,-5.748 9.047,-8.583 7.012,-6.538 14.067,-13.031 21.073,-19.575 6.659,-6.219 13.245,-12.516 19.924,-18.711 6.439,-5.973 12.992,-11.823 19.428,-17.799 4.686,-4.351 9.393,-8.693 13.838,-13.284 2.557,-2.641 4.027,-6.129 5.773,-9.359 2.968,-5.489 5.56,-11.173 7.447,-17.112 2.189,-6.887 3.629,-13.98 2.595,-21.245 -1.091,-7.674 -4.368,-14.357 -10.432,-19.365 -7.439,-6.143 -16.023,-9.653 -25.6,-11.019 -6.014,-0.858 -11.991,-1.814 -18.087,-1.842 -7.517,-0.034 -14.988,0.468 -22.419,1.598 -0.946,0.144 -1.9,0.312 -2.853,0.327 -3.209,0.051 -6.336,0.627 -9.501,1.105 -9.164,1.385 -18.253,3.123 -27.286,5.16 -4.983,1.123 -9.991,2.136 -14.856,3.767 -2.707,0.908 -5.56,1.301 -8.312,2.193 -6.671,2.161 -13.432,4.065 -20.215,5.854 -4.625,1.22 -9.347,2.067 -14.025,3.086 -1.403,0.306 -2.8,0.641 -4.204,0.944 -1.559,0.337 -3.11,0.794 -4.688,0.941 -1.924,0.18 -3.808,0.421 -5.629,1.086 -0.447,0.163 -0.929,0.246 -1.402,0.318 -5.992,0.915 -11.992,1.774 -17.975,2.743 -7.256,1.174 -14.494,2.455 -21.744,3.659 -5.824,0.966 -11.657,1.876 -17.482,2.833 -1.257,0.207 -2.504,0.485 -3.745,0.772 -0.778,0.18 -1.531,0.606 -2.306,0.635 -4.829,0.181 -9.33,2.024 -14.071,2.706 -3.934,0.566 -7.812,1.643 -11.646,2.735 -6.296,1.792 -12.547,3.746 -18.796,5.7 -2.436,0.762 -4.8,1.751 -7.223,2.557 -1.65,0.548 -2.683,-0.067 -2.615,-1.621 0.287,-6.524 0.071,-13.063 1.743,-19.505 2.167,-8.351 3.329,-16.924 4.583,-25.446 0.903,-6.143 1.056,-12.407 1.349,-18.626 0.279,-5.906 -0.154,-11.825 0.254,-17.743 0.152,-2.2 -0.377,-4.445 -0.574,-6.672 -0.996,-11.247 -3.493,-22.074 -8.956,-32.072 -2.098,-3.838 -4.635,-7.096 -8.794,-9.121 -3.93,-1.914 -7.854,-2.208 -12.074,-1.964 -8.219,0.475 -15.339,4.065 -22.524,7.521 -2.301,1.107 -4.555,2.324 -6.768,3.599 -5.144,2.965 -9.91,6.423 -14.152,10.624 -6.37,6.307 -12.454,12.846 -18.076,19.846 -3.694,4.6 -7.879,8.808 -11.872,13.165 -1.301,1.42 -2.739,2.689 -4.607,3.254 -1.133,0.082 -1.805,-0.629 -2.502,-1.287 -13.317,-12.564 -23.657,-27.165 -30.727,-44.117 -3.514,-8.427 -6.287,-17.053 -8.628,-25.859 -2.338,-8.796 -3.879,-17.762 -5.928,-26.614 -2.483,-10.725 -5.088,-21.481 -10.227,-31.341 -4.518,-8.668 -10.741,-15.841 -19.272,-20.859 -6.273,-3.689 -12.993,-5.952 -20.18,-7.155 -8.935,-1.495 -16.732,1.013 -23.858,6.12 -4.237,3.036 -6.999,7.395 -9.739,11.738 -4.228,6.703 -6.635,14.132 -8.623,21.706 -1.46,5.562 -2.87,11.154 -3.912,16.805 -1.1,5.959 -1.739,12.003 -2.574,18.011 -0.242,1.741 -0.497,3.481 -0.693,5.227 -1.161,10.311 -2.217,20.635 -3.482,30.933 -1.327,10.811 -3.801,21.334 -7.523,31.624 -3.363,9.296 -6.464,18.736 -7.264,28.718 -0.065,0.809 -0.291,1.569 -0.969,2.196 -1.44,0.592 -2.786,-0.156 -4.085,-0.642 -8.579,-3.206 -17.483,-4.934 -26.521,-6.206 -7.585,-1.067 -15.135,-2.408 -22.593,-4.18 -2.475,-0.588 -4.89,-1.455 -7.297,-2.295 -3.926,-1.371 -8.051,-1.935 -12.033,-3.152 -5.357,-1.637 -10.582,-3.573 -15.762,-5.643 -9.343,-3.735 -18.279,-8.372 -27.418,-12.558 -8.41,-3.852 -16.73,-7.975 -25.528,-10.888 -5.895,-1.951 -11.71,-4.206 -17.867,-5.333 -5.964,-1.091 -11.892,-2.375 -17.846,-3.518 -1.246,-0.239 -2.539,-0.305 -3.812,-0.321 -5.118,-0.062 -10.236,-0.086 -15.355,-0.099 -6.074,-0.015 -11.802,1.63 -16.888,4.743 -6.639,4.063 -10.511,10.064 -10.817,18.127 -0.327,8.633 1.596,16.75 4.755,24.733 4.436,11.21 10.654,21.415 16.929,31.625 3.594,5.847 7.016,11.812 10.246,17.868 4.207,7.887 8.322,15.833 12.157,23.905 4.997,10.519 9.778,21.145 14.475,31.803 5.149,11.684 10.195,23.416 15.103,35.203 5.525,13.266 11.268,26.436 17.351,39.45 5.888,12.598 12.222,24.972 20.369,36.315 0.094,0.13 0.185,0.261 0.274,0.394 2.479,3.672 2.42,4.145 -1.235,6.96 -6.436,4.956 -13.519,8.195 -21.716,9.277 -7.296,0.963 -14.575,1.736 -21.925,1.863 -1.76,0.03 -3.492,0.244 -5.24,0.458 -7.621,0.93 -15.158,2.305 -22.595,4.167 -3.862,0.967 -7.67,2.193 -11.493,3.311 -4.146,1.212 -8.187,2.652 -12.227,4.13 -10.351,3.788 -20.306,8.495 -30.332,13.042 -7.555,3.427 -15.199,6.66 -22.736,10.128 -5.377,2.473 -10.973,4.369 -16.587,6.112 -3.619,1.123 -7.277,2.415 -11.141,2.719 -1.103,0.086 -2.183,0.452 -3.273,0.693 -1.56,0.344 -3.106,0.797 -4.684,1.013 -3.318,0.455 -6.653,0.79 -9.981,1.167 -3.969,0.45 -7.949,0.816 -11.906,1.355 -7.908,1.078 -15.81,2.139 -23.665,3.648 -4.381,0.842 -8.664,2.123 -13.101,2.746 -2.972,0.417 -5.855,1.502 -8.781,2.267 -8.026,2.097 -15.923,4.709 -23.477,8.149 -8.753,3.985 -17.07,8.736 -23.7,15.923 -6.341,6.875 -10.507,14.76 -11.529,24.213 -0.363,3.356 -0.664,6.609 -0.054,9.992 0.929,5.161 3.688,9.156 7.38,12.575 3.286,3.043 6.978,5.611 10.823,7.904 7.42,4.425 15.295,7.904 23.248,11.264 8.251,3.487 16.647,6.585 25.093,9.501 9.486,3.277 18.896,6.811 28.616,9.412 4.301,1.151 8.467,2.799 12.698,4.21 5.905,1.97 11.818,3.915 17.717,5.899 4.988,1.678 9.943,3.457 14.947,5.084 7.739,2.517 15.487,5.009 23.269,7.388 6.401,1.958 12.857,3.735 19.287,5.598 4.752,1.376 9.517,2.713 14.249,4.155 5.95,1.812 11.858,3.763 17.812,5.56 3.814,1.15 7.666,2.177 11.523,3.176 6.183,1.602 12.406,3.056 18.567,4.736 2.454,0.67 4.807,1.733 7.171,2.702 1.029,0.422 2.016,0.99 2.944,1.608 4.948,3.293 5.994,6.094 4.2,11.836 -2.02,6.465 -5.282,12.315 -9.355,17.697 -4.165,5.503 -9.094,10.268 -14.374,14.705 -5.873,4.935 -11.651,9.984 -17.443,15.015 -4.701,4.083 -9.479,8.088 -14.015,12.349 -7.346,6.902 -14.302,14.173 -20.338,22.296 -6.722,9.046 -11.743,19 -16.251,29.269 -3.273,7.455 -6.82,14.783 -10.397,22.102 -7.014,14.349 -14.055,28.697 -20.538,43.289 -5.571,12.542 -10.755,25.287 -14.518,38.528 -2.49,8.76 -4.379,17.655 -5.99,26.632 -0.995,5.546 -1.12,11.126 -1.586,16.674 -0.482,5.741 2.415,10.686 8.621,13.649 4.341,2.072 8.943,2.476 13.565,2.399 5.422,-0.089 10.8,-0.706 16.176,-1.725 7.086,-1.343 13.98,-3.343 20.869,-5.334 5.662,-1.636 11.136,-3.938 16.659,-6.033 8.212,-3.115 16.268,-6.601 24.198,-10.375 18.089,-8.609 34.869,-19.372 51.243,-30.85 9.419,-6.602 19.111,-12.818 28.74,-19.115 14.317,-9.363 28.943,-18.207 44.193,-25.991 4.978,-2.54 9.877,-5.232 14.839,-7.803 6.85,-3.548 12.936,-8.22 19.084,-12.811 5.119,-3.822 9.997,-7.991 15.68,-11.006 1.123,-0.596 2.35,-0.998 3.461,-1.613 2.769,-1.532 5.562,0.924 5.482,3.819 -0.063,2.251 -0.256,4.455 -0.759,6.653 -1.569,6.861 -3.907,13.464 -6.451,20.014 -5.094,13.112 -10.961,25.888 -16.642,38.745 -3.887,8.798 -6.889,17.899 -9.279,27.189 -2.07,8.046 -3.515,16.27 -4.111,24.533 -0.678,9.393 -0.828,18.844 0.475,28.248 0.569,4.107 0.77,8.265 1.233,12.389 0.267,2.377 0.782,4.725 1.085,7.099 0.686,5.385 1.514,10.752 3.014,15.968 1.586,5.515 3.279,11.009 5.194,16.417 2.881,8.134 5.636,16.305 6.822,24.873 0.657,4.746 0.669,9.563 -0.39,14.315 -1.885,8.465 -2.826,17.02 -2.384,25.704 0.246,4.824 1.043,9.502 3.073,13.95 3.838,8.408 10.542,12.619 19.543,13.166 4.939,0.3 9.913,0.04 14.871,-0.03 1.271,-0.018 2.622,-0.043 3.793,-0.464 3.921,-1.41 8.061,-1.894 12.047,-3.098 8.892,-2.686 17.502,-6.002 25.924,-9.882 11.635,-5.36 22.811,-11.551 33.505,-18.587 7.893,-5.192 15.176,-11.143 21.973,-17.743 10.608,-10.3 19.618,-21.868 28.045,-33.954 9.229,-13.236 18.276,-26.601 28.351,-39.233 4.495,-5.635 7.937,-11.987 11.097,-18.446 2.607,-5.327 5.658,-10.376 9.001,-15.243 2.983,-4.342 7.088,-6.863 12.563,-6.608 3.351,0.156 6.619,0.592 9.921,1.418 9.64,2.412 18.086,7.208 26.277,12.532 7.103,4.617 14.302,9.065 21.692,13.2 13.918,7.789 25.108,18.639 34.777,31.136 5.279,6.824 10.237,13.896 15.35,20.85 10.257,13.949 22.479,25.723 37.773,34.093 8.154,4.462 16.727,7.872 25.542,10.837 6.383,2.147 12.965,3.374 19.411,5.188 3.568,1.004 7.305,0.795 10.971,0.416 2.303,-0.238 4.173,-1.639 5.878,-3.05 2.844,-2.355 5.263,-5.147 6.986,-8.445 2.817,-5.395 4.798,-11.08 6.361,-16.982 1.973,-7.452 2.631,-15.096 3.979,-22.635 0.222,-1.245 0.134,-2.55 0.146,-3.828 0.045,-4.958 0.015,-9.917 0.122,-14.874 0.126,-5.852 -1.215,-11.411 -3.158,-16.862 -3.592,-10.077 -7.38,-20.089 -10.752,-30.239 -2.361,-7.108 -4.111,-14.381 -5.51,-21.789 -1.743,-9.227 -1.779,-18.43 -1.51,-27.686 0.129,-4.454 0.776,-8.894 1.233,-13.336 0.41,-3.991 0.394,-7.996 0.08,-11.975 -0.327,-4.131 -0.773,-8.281 -1.586,-12.339 -0.844,-4.22 -2.097,-8.368 -3.342,-12.496 -1.29,-4.279 -2.785,-8.495 -4.191,-12.739 -0.915,-2.764 -1.144,-5.632 -1.159,-8.51 -0.008,-1.707 1.211,-2.743 2.873,-2.261 2.596,0.751 5.163,1.666 7.645,2.737 10.108,4.367 20.173,8.831 30.265,13.236 9.38,4.095 18.851,8.03 28.736,10.683 12.522,3.362 25.267,5.472 38.325,5.163 8.312,-0.197 16.634,-0.056 24.944,-0.314 5.104,-0.158 10.199,-0.659 15.227,-1.737 4.987,-1.068 10.031,-1.865 15.026,-2.899 2.654,-0.55 5.291,-1.24 7.875,-2.06 5.32,-1.687 10.584,-3.55 15.9,-5.251 3.496,-1.119 7.04,-2.084 10.564,-3.113 7.811,-2.28 15.656,-4.462 22.872,-8.372 7.838,-4.247 13.833,-10.217 17.405,-18.482 2.713,-6.275 4.061,-12.781 3.269,-19.623 -0.599,-5.178 -2.703,-9.785 -5.371,-14.228 -3.714,-6.186 -9.116,-10.649 -14.7,-14.941 -7.117,-5.47 -14.958,-9.807 -22.768,-14.171 -9.475,-5.294 -19.119,-10.297 -28.474,-15.792 -8.55,-5.022 -16.351,-11.172 -24.171,-17.264 -10.587,-8.248 -20.66,-17.14 -31.56,-24.999 -11.047,-7.964 -22.681,-14.935 -34.832,-21.056 -2.276,-1.146 -4.465,-2.469 -6.922,-3.282 -1.157,-0.383 -2.442,-0.83 -3.245,-2.206" /></g><g
           transform="translate(1064.0503,980.7014)"
           id="g78"><path
             id="path80"
             style="fill:#ffffff;fill-opacity:1;fill-rule:nonzero;stroke:none"
             d="m 0,0 c -0.775,1.801 -2.264,2.103 -3.608,2.389 -6.87,1.459 -13.64,3.423 -20.65,4.171 -1.743,0.186 -3.498,0.348 -5.249,0.355 -8.796,0.035 -17.592,-0.01 -26.388,0.021 -7.832,0.028 -15.649,-0.127 -23.428,-1.159 -0.945,-0.126 -1.916,-0.065 -2.875,-0.068 -2.879,-0.007 -5.76,0.075 -8.636,-0.018 -7.514,-0.243 -14.996,0.327 -22.485,0.743 -8.307,0.461 -16.553,1.462 -24.722,3.034 -2.664,0.513 -5.284,1.257 -7.926,1.893 -9.003,2.166 -18.042,4.199 -27.001,6.538 -7.255,1.894 -14.417,4.145 -21.613,6.265 -0.76,0.223 -1.475,0.609 -2.197,0.948 -1.396,0.654 -2.296,1.698 -2.504,3.268 -0.105,0.792 -0.305,1.583 -0.312,2.376 -0.089,9.907 -1.282,19.818 -0.524,29.704 0.499,6.522 0.192,13.072 1.193,19.586 0.943,6.139 4.107,10.147 9.564,12.785 3.83,1.852 7.945,2.489 12.029,2.997 4.57,0.568 9.176,0.783 13.855,0.292 3.797,-0.398 7.62,-0.725 11.427,-1.128 8.431,-0.895 16.719,-2.595 25.037,-4.208 10.048,-1.949 19.934,-4.528 29.872,-6.897 6.826,-1.627 13.538,-3.724 20.319,-5.54 8.94,-2.395 17.96,-4.514 26.835,-7.128 11.836,-3.486 23.984,-5.438 36.071,-7.624 8.803,-1.592 17.644,-3.051 26.377,-4.949 12.17,-2.646 24.115,-6.117 35.476,-11.432 3.909,-1.829 7.701,-3.852 11.526,-5.821 5.7,-2.935 11.65,-5.259 17.747,-7.155 4.173,-1.297 8.08,-2.97 11.548,-5.642 1.772,-1.365 3.624,-2.629 5.37,-4.026 3.907,-3.127 8.244,-5.411 12.937,-7.139 7.707,-2.839 14.742,-6.89 21,-12.237 2.466,-2.107 4.274,-4.725 5.705,-7.616 3.414,-6.895 0.358,-13.785 -5.023,-17.195 -7.615,-4.828 -15.73,-8.241 -24.914,-9.249 -6.385,-0.701 -12.732,-1.035 -19.116,-0.916 -5.46,0.101 -10.877,-0.432 -16.253,-1.099 -4.254,-0.527 -8.446,-1.73 -12.595,-2.887 C 43.673,-37.172 32.24,-42.471 20.92,-48.044 12.765,-52.059 4.606,-56.116 -4.044,-58.96 c -8.983,-2.953 -18.161,-5.006 -27.726,-4.896 -8.478,0.098 -16.892,-0.532 -25.303,-1.845 -5.059,-0.789 -10.059,-1.851 -15.041,-2.903 -5.914,-1.248 -11.666,-3.268 -17.481,-4.978 -5.509,-1.621 -10.995,-3.321 -16.516,-4.899 -4.449,-1.271 -8.918,-2.483 -13.411,-3.587 -3.722,-0.915 -7.459,-1.875 -11.246,-2.388 -6.174,-0.836 -12.245,-2.275 -18.485,-2.763 -5.247,-0.411 -10.42,-1.592 -15.703,-1.868 -7.492,-0.392 -14.976,-1.223 -22.465,-1.243 -5.719,-0.016 -11.461,0.777 -17.15,1.534 -2.325,0.31 -4.63,1.279 -6.77,2.31 -1.872,0.902 -3.143,2.493 -3.976,4.574 -1.848,4.614 -0.894,8.769 1.529,12.783 2.404,3.983 5.461,7.49 8.425,11.042 3.306,3.961 6.026,8.268 8.211,12.9 1.366,2.897 2.2,6.063 2.319,9.245 0.161,4.314 2.316,6.596 6.205,8.027 4.832,1.778 9.724,3.11 14.862,3.442 3.983,0.257 8.015,0.131 11.944,0.718 5.27,0.788 10.559,0.875 15.788,0.502 8.943,-0.637 17.906,-0.141 26.813,-0.73 7.359,-0.486 14.702,-0.565 22.03,-0.363 8.77,0.241 17.492,1.201 26.084,3.29 8.717,2.119 17.063,5.242 25.464,8.3 5.098,1.857 9.849,4.6 15.173,5.844 4.665,1.089 9.299,2.349 14.006,3.208 4.711,0.861 9.348,2.172 14.157,2.497 C -1.525,-1.154 -0.75,-0.881 0,0" /></g><g
           transform="translate(898.2968,756.4442)"
           id="g82"><path
             id="path84"
             style="fill:#ffffff;fill-opacity:1;fill-rule:nonzero;stroke:none"
             d="m 0,0 c -0.343,0.67 -0.415,1.038 -0.638,1.213 -5.652,4.446 -11.289,8.912 -16.996,13.287 -4.082,3.129 -8.689,5.384 -13.397,7.371 -9.842,4.154 -19.945,7.623 -29.977,11.282 -9.585,3.496 -19.23,6.909 -28.26,11.773 -3.111,1.675 -6.069,3.561 -8.711,5.9 -3.109,2.752 -6.172,5.558 -9.212,8.387 -2.814,2.617 -5.704,5.155 -9.031,7.082 -13.143,7.613 -25.779,16.017 -38.334,24.544 -7.8,5.297 -15.544,10.677 -23.282,16.064 -3.724,2.593 -6.918,5.719 -8.645,10.017 -1.38,3.436 -1.832,7.115 -2.063,10.77 -0.456,7.218 0.557,14.373 1.546,21.488 0.754,5.42 3.519,9.554 9.184,11.12 0.762,0.211 1.497,0.554 2.208,0.909 6.869,3.435 14.272,4.619 21.817,4.808 8.471,0.213 16.954,0.146 25.429,0.029 6.803,-0.094 13.228,-1.976 19.419,-4.711 8.269,-3.653 15.497,-8.854 22.28,-14.768 9.824,-8.565 18.056,-18.534 25.665,-29.031 4.594,-6.338 8.946,-12.883 12.575,-19.821 C -39.405,80.474 -26.076,67.547 -9.462,57.735 -1.615,53.101 6.602,49.2 14.729,45.119 24.86,40.033 35.031,35.04 44.475,28.698 52.064,23.601 59.195,17.957 65.639,11.486 71.171,5.932 76.971,0.675 82.725,-4.639 c 9.281,-8.57 18.421,-17.284 25.698,-27.719 4.664,-6.689 8.966,-13.578 12.314,-21.047 1.257,-2.803 2.11,-5.721 2.676,-8.678 1.1,-5.758 -1.066,-10.346 -5.792,-13.723 -2.668,-1.907 -5.678,-2.841 -8.969,-2.95 -4.025,-0.132 -8.021,0.268 -11.904,1.181 -7.483,1.761 -15.048,2.918 -22.655,3.966 -6.008,0.828 -11.954,2.13 -17.912,3.304 -4.544,0.894 -9.075,1.867 -13.591,2.897 -4.355,0.992 -8.68,2.119 -13.025,3.156 -4.345,1.037 -8.697,2.042 -13.049,3.049 -3.578,0.827 -7.157,1.648 -10.74,2.448 -4.524,1.011 -9.034,2.095 -13.584,2.969 -5.333,1.025 -10.697,1.89 -16.057,2.768 -7.094,1.162 -14.202,2.237 -21.294,3.409 -6.303,1.042 -12.599,2.126 -18.885,3.264 -4.557,0.826 -9.105,1.714 -13.634,2.68 -4.061,0.867 -8.07,1.977 -12.137,2.808 -10.359,2.115 -20.434,5.203 -30.33,8.861 -3.423,1.266 -6.717,2.903 -9.869,4.82 -7.777,4.729 -15.638,9.319 -23.443,14 -7.695,4.614 -15.126,9.59 -21.38,16.116 -5.385,5.62 -9.18,12.216 -12.14,19.378 -3.32,8.034 -2.466,15.929 0.335,23.835 0.534,1.507 0.993,3.05 1.653,4.5 1.371,3.013 3.601,4.688 7.097,4.718 4.141,0.036 7.827,-1.564 11.52,-2.985 10.588,-4.076 20.637,-9.319 30.707,-14.518 8.084,-4.173 15.865,-8.921 24.226,-12.571 6.597,-2.881 13.411,-5.127 20.292,-7.171 6.581,-1.955 13.214,-3.74 19.845,-5.526 4.313,-1.162 8.667,-2.174 12.994,-3.284 3.243,-0.831 6.501,-1.62 9.705,-2.586 7.357,-2.216 14.919,-3.511 22.424,-5.058 1.714,-0.353 3.49,-0.522 5.242,-0.553 5.612,-0.1 11.142,-0.911 16.674,-1.733 C -2.876,-0.82 -1.451,-1.234 0,0" /></g><g
           transform="translate(515.4984,1188.2166)"
           id="g86"><path
             id="path88"
             style="fill:#ffffff;fill-opacity:1;fill-rule:nonzero;stroke:none"
             d="m 0,0 c -0.879,-0.464 -1.824,-0.214 -2.651,0.287 -13.276,8.045 -25.164,17.583 -33.126,31.249 -3.06,5.253 -5.551,10.773 -7.185,16.657 -1.881,6.769 -3.924,13.495 -5.664,20.299 -1.202,4.701 -3.46,8.932 -5.41,13.29 -6.384,14.275 -12.645,28.598 -18.369,43.152 -3.037,7.723 -6.152,15.419 -8.99,23.216 -1.528,4.197 -2.456,8.561 -2.449,13.128 0.007,4.625 -0.442,9.25 -0.643,13.877 -0.251,5.744 -0.411,11.492 -0.695,17.234 -0.125,2.543 -0.519,5.071 -0.681,7.612 -0.363,5.649 0.879,11.148 1.913,16.624 1.214,6.434 2.889,12.782 4.387,19.162 2.229,9.491 4.289,19.01 6.02,28.612 1.166,6.462 1.783,12.979 2.725,19.46 0.852,5.85 1.066,11.772 1.137,17.685 0.055,4.638 -0.12,9.281 0.036,13.915 0.265,7.914 4.784,12.406 12.641,12.731 3.853,0.159 7.627,-0.293 11.394,-1.257 15.77,-4.034 29.601,-11.793 42.27,-21.792 5.916,-4.669 11.249,-9.936 15.751,-16.024 1.324,-1.791 2.896,-3.414 4.467,-5.002 5.625,-5.684 11.343,-11.278 16.946,-16.985 15.203,-15.482 28.292,-32.577 38.543,-51.723 5.794,-10.819 12.976,-20.486 21.77,-29.014 4.593,-4.453 9.032,-9.065 13.591,-13.553 2.068,-2.036 3.812,-4.314 5.385,-6.725 1.723,-2.644 2.416,-5.407 1.543,-8.648 -1.085,-4.028 -2.378,-7.945 -4.118,-11.732 -2.599,-5.657 -5.156,-11.333 -7.693,-17.018 -2.484,-5.565 -3.941,-11.473 -5.636,-17.295 -1.294,-4.445 -2.428,-8.939 -3.526,-13.437 -1.097,-4.497 -2.003,-9.04 -3.1,-13.536 -1.55,-6.355 -3.031,-12.737 -5.642,-18.776 -0.189,-0.439 -0.321,-0.905 -0.542,-1.327 -0.565,-1.078 -1.981,-1.216 -2.81,-0.252 -0.412,0.48 -0.774,1.021 -1.069,1.581 -5.25,9.995 -12.895,18.242 -19.779,27.04 -1.668,2.131 -3.693,3.983 -5.567,5.951 -5.622,5.903 -11.696,11.353 -17.07,17.514 -4.884,5.598 -8.712,11.808 -11.942,18.441 -2.586,5.312 -5.286,10.564 -8.369,15.61 -3.093,5.061 -6.512,9.848 -10.846,13.968 -4.42,4.202 -8.215,8.943 -11.327,14.208 -2.043,3.455 -3.567,7.146 -4.87,10.928 -1.662,4.825 -3.158,9.684 -6.092,13.993 -2.47,3.627 -2.86,8.093 -4.183,12.182 -0.393,1.213 -0.516,2.54 -1.523,3.444 -0.322,0.29 -0.886,0.531 -1.277,0.458 -0.369,-0.069 -0.879,-0.544 -0.936,-0.903 -0.175,-1.095 -0.21,-2.22 -0.212,-3.334 -0.008,-4.159 -0.292,-8.347 0.093,-12.47 0.951,-10.177 0.142,-20.468 2.054,-30.574 1.276,-6.745 2.249,-13.564 3.879,-20.222 2.313,-9.451 4.399,-18.969 7.441,-28.236 2.44,-7.435 4.535,-14.988 7.136,-22.364 C -0.806,95.455 1.575,89.688 4.203,84.063 8.469,74.934 10.683,65.458 10.724,55.358 10.751,48.739 9.784,42.289 8.508,35.867 7.482,30.699 6.2,25.573 4.822,20.485 3.191,14.463 1.774,8.407 0.972,2.216 0.868,1.417 0.703,0.635 0,0" /></g><g
           transform="translate(403.1658,736.826)"
           id="g90"><path
             id="path92"
             style="fill:#ffffff;fill-opacity:1;fill-rule:nonzero;stroke:none"
             d="m 0,0 c 1.634,0.99 3.107,2.35 4.462,3.953 3.404,4.025 6.991,7.895 10.495,11.836 7.433,8.36 14.944,16.653 22.248,25.125 3.049,3.536 6.35,6.767 9.962,9.664 4.934,3.958 8.817,8.793 12.313,13.981 7.056,10.473 13.599,21.271 20.115,32.082 10.474,17.379 20.788,34.852 30.585,52.625 1.851,3.357 3.631,6.752 5.491,10.105 0.761,1.373 1.646,2.678 2.347,3.807 1.657,0.344 2.075,-0.524 2.151,-1.524 0.267,-3.5 0.593,-7.005 0.634,-10.511 0.093,-7.997 -0.006,-15.996 0.039,-23.994 0.045,-7.992 -0.462,-15.952 -1.111,-23.911 -0.247,-3.024 -0.159,-6.073 -0.349,-9.103 -0.915,-14.665 -2.237,-29.294 -4.074,-43.872 -0.683,-5.421 -3.625,-9.488 -8.151,-12.398 -2.416,-1.555 -4.943,-2.944 -7.465,-4.327 C 91.167,28.865 84.9,21.998 80.074,13.663 77.34,8.941 75.251,3.948 73.405,-1.161 c -1.846,-5.107 -3.66,-10.225 -5.476,-15.342 -1.983,-5.588 -3.259,-11.371 -4.527,-17.143 -1.063,-4.836 -1.755,-9.752 -2.704,-14.614 -0.49,-2.508 -1.157,-4.982 -1.788,-7.461 -0.552,-2.17 -2.145,-3.54 -3.947,-4.605 -1.366,-0.807 -2.853,-1.488 -4.37,-1.943 -2.752,-0.824 -5.538,-1.603 -8.363,-2.105 -5.507,-0.978 -11.063,-1.675 -16.575,-2.627 -11.81,-2.041 -23.632,-4.097 -34.874,-8.45 -5.369,-2.08 -10.523,-4.654 -15.207,-8.053 -7.702,-5.588 -16.252,-9.475 -25.182,-12.579 -7.853,-2.728 -15.912,-4.716 -24.007,-6.594 -4.833,-1.121 -9.422,-3.015 -13.974,-4.996 -5.121,-2.228 -10.262,-4.353 -15.694,-5.835 -8.312,-2.268 -18.862,3.09 -21.805,11.424 -1.773,5.021 -2.019,9.979 -0.842,15.081 1.423,6.16 4.189,11.747 7.755,16.893 2.908,4.198 6.1,8.195 9.763,11.813 3.98,3.93 7.828,8.002 11.59,12.143 5.944,6.541 10.748,13.902 14.99,21.629 5.467,9.96 9.63,20.49 13.67,31.09 3.578,9.389 7.167,18.777 11.361,27.928 5.194,11.333 11.158,22.259 16.939,33.288 6.895,13.156 13.973,26.208 21.383,39.081 1.036,1.799 2.075,3.606 3.246,5.317 4.086,5.973 7.037,12.499 9.668,19.207 2.622,6.687 5.232,13.399 8.652,19.727 4.976,9.207 11.661,16.806 21.404,21.209 3.489,1.578 7.124,2.84 10.976,3.284 6.655,0.766 13.253,1.6 20.025,0.584 5.523,-0.829 11.072,-1.414 16.571,-2.509 3.619,-0.721 3.858,-2.119 3.638,-4.941 -0.161,-2.066 -0.43,-4.144 -0.882,-6.165 -1.745,-7.795 -4.131,-15.401 -6.699,-22.968 -2.77,-8.167 -5.862,-16.201 -9.163,-24.157 -1.71,-4.122 -3.582,-8.178 -5.453,-12.23 C 50.258,96.193 45.292,90.293 40.832,84.063 36.551,78.084 32.172,72.173 28.001,66.119 23.635,59.784 20.357,52.846 17.307,45.801 11.851,33.199 6.929,20.388 2.203,7.497 1.288,5.001 0.068,2.622 0,0" /></g><g
           transform="translate(303.5875,1229.5685)"
           id="g94"><path
             id="path96"
             style="fill:#ffffff;fill-opacity:1;fill-rule:nonzero;stroke:none"
             d="m 0,0 c -0.255,-0.716 0.054,-1.288 0.425,-1.803 6.445,-8.95 12.977,-17.846 20.417,-25.999 10.249,-11.229 21.333,-21.565 33.562,-30.656 14.267,-10.605 29.504,-19.659 44.9,-28.473 11.227,-6.426 22.454,-12.851 33.656,-19.319 1.933,-1.116 3.807,-2.359 5.592,-3.698 1.464,-1.098 1.663,-2.704 0.658,-4.246 -1.347,-2.07 -3.185,-3.629 -5.56,-4.341 -3.366,-1.008 -6.75,-1.831 -10.335,-1.884 -8.649,-0.128 -17.242,0.382 -25.81,1.534 -2.054,0.276 -4.138,0.451 -6.209,0.46 -5.418,0.023 -10.808,0.764 -16.263,0.186 -3.142,-0.333 -5.988,-1.149 -8.5,-2.899 -7.497,-5.221 -15.882,-6.379 -24.692,-5.576 -3.795,0.345 -6.997,1.812 -9.253,5.192 -6.518,9.768 -14.681,18.112 -23.128,26.187 -4.395,4.202 -9.156,7.984 -13.995,11.655 -7.64,5.797 -15.427,11.405 -22.976,17.318 -5.276,4.132 -10.547,8.348 -15.311,13.044 -8.953,8.824 -16.155,18.942 -20.54,30.863 -3.414,9.283 -6.797,18.578 -10.192,27.867 -2.411,6.595 -4.876,13.17 -7.213,19.79 -2.444,6.92 -4.755,13.888 -7.143,20.828 -2.853,8.292 -5.755,16.563 -9.409,24.552 -3.253,7.111 -6.365,14.297 -8.601,21.795 -1.043,3.498 -1.705,7.16 -2.078,10.794 -0.449,4.381 0.601,8.548 2.97,12.351 2.41,3.868 5.881,5.138 10.249,4.493 5.312,-0.785 10.052,-3.021 14.652,-5.648 7.649,-4.369 14.836,-9.441 21.796,-14.799 10.67,-8.211 22.01,-15.334 33.782,-21.822 C -12.351,71.025 -0.756,63.404 10.057,54.592 23.468,43.663 37.882,34.192 52.937,25.701 66.983,17.778 81.109,9.996 95.189,2.133 c 10.898,-6.086 21.265,-12.983 31.201,-20.534 10.573,-8.037 21.497,-15.537 33.307,-21.672 3.397,-1.765 6.802,-3.519 10.24,-5.204 9.659,-4.734 18.735,-10.385 26.741,-17.584 8.618,-7.749 14.962,-17.034 17.615,-28.479 1.009,-4.354 1.281,-8.842 1.002,-13.326 -0.188,-3.028 -0.324,-6.073 -0.762,-9.07 -0.747,-5.107 -2.024,-5.639 -5.801,-2.338 -6.013,5.256 -11.898,10.659 -17.822,16.016 -14.345,12.974 -28.742,25.887 -44.937,36.585 -6.534,4.316 -13.195,8.443 -20.448,11.452 -5.306,2.202 -10.726,4.134 -16.104,6.163 -10.001,3.773 -20.066,7.384 -29.998,11.329 -11.861,4.711 -23.715,9.466 -35.38,14.634 C 30.19,-13.756 16.407,-7.439 2.993,-0.363 2.038,0.141 1.112,0.981 0,0" /></g><g
           transform="translate(741.3535,1101.8711)"
           id="g98"><path
             id="path100"
             style="fill:#ffffff;fill-opacity:1;fill-rule:nonzero;stroke:none"
             d="m 0,0 c -0.493,0.83 -0.346,1.637 0.318,2.169 1.244,0.996 2.561,1.91 3.901,2.776 9.391,6.074 19.174,11.472 28.947,16.897 12.982,7.206 26.023,14.324 38.417,22.534 9.207,6.098 18.048,12.644 25.742,20.654 4.806,5.004 8.927,10.467 11.744,16.796 1.616,3.631 3.01,7.398 2.95,11.52 -0.025,1.75 0.228,3.504 0.346,5.257 0.043,0.633 0.074,1.272 -0.628,1.783 -0.364,0.258 -0.864,0.109 -1.231,-0.163 -0.503,-0.374 -0.96,-0.842 -1.339,-1.343 C 103.183,90.974 95.328,85.23 87.144,79.886 75.738,72.439 63.469,66.666 50.949,61.388 39.749,56.668 28.239,52.815 16.59,49.419 7.24,46.694 -2.322,44.765 -11.913,43.068 c -3.448,-0.611 -6.977,-0.784 -10.475,-1.09 -0.944,-0.083 -1.92,0.007 -2.861,0.15 -1.233,0.188 -1.98,0.967 -2.161,2.22 -0.068,0.472 -0.086,0.955 -0.086,1.434 0.006,5.916 0.016,11.833 0.034,17.749 0.009,3.027 1.111,5.572 3.252,7.735 1.825,1.842 3.907,3.309 6.18,4.486 5.838,3.023 12.024,5.095 18.428,6.538 8.101,1.825 16.203,3.644 24.306,5.464 4.203,0.944 8.46,1.696 12.599,2.867 7.051,1.995 14.136,3.925 20.291,8.24 3.716,2.606 6.878,5.735 9.631,9.269 2.354,3.021 4.514,6.205 6.606,9.417 3.186,4.891 7.139,8.947 11.997,12.216 13.31,8.958 27.547,16.018 42.531,21.738 10.335,3.946 20.924,6.93 31.666,9.359 7.16,1.619 14.451,2.71 21.722,3.77 9.475,1.382 18.943,2.801 28.529,3.395 4.767,0.295 9.579,0.168 14.322,1.038 1.546,0.283 3.212,0.234 4.78,0.017 6.796,-0.937 13.639,-1.408 20.39,-2.837 6.077,-1.286 12.341,-1.661 18.484,-2.672 5.355,-0.882 10.671,-2.022 15.977,-3.175 4.524,-0.984 9.017,-2.115 13.509,-3.238 8.071,-2.018 15.245,-5.642 20.992,-11.812 2.917,-3.132 3.494,-7.384 1.145,-10.965 -1.657,-2.525 -3.619,-4.793 -5.976,-6.804 -8.209,-7.005 -17.47,-12.368 -26.916,-17.398 -9.997,-5.321 -20.241,-10.175 -30.284,-15.413 -12.036,-6.279 -23.981,-12.725 -34.978,-20.776 -6.724,-4.922 -12.98,-10.386 -18.942,-16.175 -5.631,-5.467 -12.126,-9.269 -19.662,-11.421 -6.471,-1.847 -13.08,-2.877 -19.715,-3.905 -10.254,-1.589 -20.53,-3.255 -29.911,-8.094 -2.263,-1.167 -4.474,-2.47 -6.576,-3.906 C 118.403,24.679 109.044,20.697 99.359,17.332 91.208,14.501 82.903,12.209 74.582,9.979 70.118,8.782 65.54,8.016 61.022,7.016 57.441,6.223 53.848,5.493 50.253,4.777 43.975,3.527 37.634,2.748 31.326,1.786 25.344,0.872 19.259,0.565 13.207,0.192 9.707,-0.024 6.252,-0.844 2.714,-0.55 1.769,-0.471 0.787,-0.668 0,0" /></g><g
           transform="translate(799.8441,1414.1929)"
           id="g102"><path
             id="path104"
             style="fill:#ffffff;fill-opacity:1;fill-rule:nonzero;stroke:none"
             d="m 0,0 c -0.724,0.182 -1.211,-0.214 -1.702,-0.637 -6.695,-5.788 -12.425,-12.304 -16.834,-20.09 -4.406,-7.781 -9.658,-15.017 -15.396,-21.948 -8.562,-10.34 -16.68,-21.05 -24.9,-31.67 -11.742,-15.17 -23.316,-30.472 -35.146,-45.573 -5.021,-6.411 -10.398,-12.551 -16.101,-18.39 -2.903,-2.972 -5.718,-6.03 -8.52,-9.097 -3.739,-4.092 -8.32,-6.951 -13.305,-9.228 -2.756,-1.259 -5.567,-2.398 -8.313,-3.678 -1.74,-0.811 -3.382,-0.655 -5.092,0.036 -5.938,2.399 -10.086,6.646 -12.697,12.409 -2.534,5.593 -3.787,11.508 -4.029,17.637 -0.557,14.078 2.633,27.226 9.6,39.5 4.183,7.37 8.407,14.695 13.435,21.541 8.204,11.168 18.599,19.735 30.875,26.009 3.823,1.954 7.943,3.327 11.929,4.962 14.063,5.769 26.453,14.027 37.375,24.616 11.015,10.68 19.938,22.844 26.976,36.441 1.253,2.42 2.798,4.684 4.692,6.643 13.2,13.65 27.947,25.288 44.772,34.195 3.691,1.954 7.628,3.315 11.68,4.214 5.849,1.299 11.086,-0.321 15.661,-4.052 4.738,-3.865 6.57,-9.29 7.733,-15.022 0.222,-1.094 0.406,-2.215 0.432,-3.328 C 53.327,36.697 53.356,27.954 51.62,19.222 49.556,8.84 46.773,-1.287 42.798,-11.083 c -1.559,-3.842 -3.22,-7.651 -5.029,-11.382 -3.242,-6.684 -5.443,-13.575 -5.843,-21.086 -0.255,-4.798 -0.308,-9.532 -0.025,-14.339 0.394,-6.694 0.373,-13.445 -0.011,-20.141 -0.245,-4.274 -1.308,-8.529 -2.292,-12.725 -1.422,-6.067 -2.763,-12.143 -3.981,-18.255 -1.185,-5.949 -2.574,-11.871 -4.726,-17.569 -3.313,-8.77 -8.236,-16.592 -14.363,-23.636 -3.774,-4.339 -7.837,-8.424 -11.702,-12.685 -3.771,-4.157 -7.181,-8.546 -9.183,-13.913 -0.775,-2.081 -2.21,-3.843 -3.819,-5.464 -4.11,-4.14 -8.998,-7.176 -14.048,-9.931 -7.297,-3.98 -14.893,-7.354 -22.817,-9.878 -6.553,-2.087 -13.207,-3.874 -20.202,-3.496 -3.833,0.207 -7.611,0.564 -11.068,2.583 -3.027,1.767 -4.562,4.135 -4.725,7.724 -0.212,4.666 1.305,8.813 3.179,12.88 3.96,8.593 9.117,16.487 14.481,24.247 6.363,9.203 12.863,18.313 19.111,27.593 9.648,14.327 18.216,29.286 25.944,44.742 5.293,10.584 10.015,21.405 14.107,32.49 2.706,7.328 5.101,14.777 7.049,22.358 2.424,9.436 4.9,18.858 7.351,28.288 C 0.424,-1.764 0.749,-0.837 0,0" /></g><g
           transform="translate(185.1701,988.76)"
           id="g106"><path
             id="path108"
             style="fill:#ffffff;fill-opacity:1;fill-rule:nonzero;stroke:none"
             d="m 0,0 c 1.806,-3.415 4.452,-5.798 7.826,-7.475 4.196,-2.086 8.72,-3.171 13.256,-4.018 4.384,-0.819 8.864,-1.169 13.315,-1.577 12.438,-1.141 24.917,-1.024 37.38,-0.844 9.282,0.133 18.55,-0.294 27.79,-0.762 8.252,-0.418 16.59,-0.812 24.705,-2.905 3.123,-0.805 6.154,-1.775 9.008,-3.207 5.757,-2.89 11.83,-4.676 18.153,-5.785 5.517,-0.968 11.058,-1.63 16.635,-2.144 4.444,-0.409 8.82,-1.326 12.868,-3.443 5.235,-2.738 8.574,-6.944 10.537,-12.475 1.415,-3.987 1.968,-8.045 2.006,-12.227 0.058,-6.269 -0.734,-12.42 -2.144,-18.533 -1.364,-5.918 -5.196,-9.395 -10.632,-11.328 -5.34,-1.899 -10.899,-2.186 -16.538,-2.017 -9.305,0.28 -18.42,1.842 -27.529,3.59 -5.49,1.054 -11.037,1.805 -16.549,2.75 -4.567,0.783 -9.12,1.646 -13.678,2.482 -4.871,0.892 -9.729,1.865 -14.614,2.669 -4.12,0.678 -8.079,1.857 -11.919,3.44 -8.851,3.648 -17.644,7.439 -26.521,11.021 -9.468,3.819 -18.91,7.742 -28.543,11.107 -9.031,3.155 -18.217,5.949 -27.484,8.324 -8.18,2.097 -16.394,4.112 -24.81,5.329 -6.349,0.918 -12.654,1.654 -19.057,1.686 -1.433,0.007 -2.89,0.092 -4.292,0.365 -5.486,1.065 -11.012,1.903 -16.503,2.955 -7.664,1.469 -15.3,3.261 -23.251,3.038 -6.206,-0.174 -11.952,1.902 -17.011,5.565 -2.586,1.872 -5.154,3.805 -7.499,5.962 -4.204,3.868 -4.748,8.891 -1.775,13.864 2.363,3.953 5.806,6.82 9.662,9.138 3.7,2.224 7.716,3.727 11.931,4.874 4.603,1.254 9.106,2.971 13.514,4.817 5.898,2.47 11.844,4.777 17.935,6.716 0.609,0.193 1.223,0.388 1.849,0.506 9.583,1.805 19.027,4.215 28.467,6.628 6.501,1.662 12.957,3.499 19.428,5.274 6.309,1.731 12.627,3.426 18.911,5.242 5.981,1.729 11.924,3.589 17.881,5.399 5.036,1.531 10.079,3.038 15.099,4.621 5.78,1.823 11.528,3.748 17.308,5.572 5.795,1.829 11.291,4.408 16.94,6.602 5.665,2.2 11.586,3.631 17.579,4.682 8.97,1.573 17.961,3.031 26.921,4.658 3.137,0.569 6.256,1.344 9.301,2.287 5.372,1.664 10.885,2.388 16.432,3.122 3.712,0.492 7.348,0.303 10.984,-0.17 5.231,-0.681 10.453,-1.589 15.263,-3.883 7.567,-3.609 13.086,-9.05 15.081,-17.51 0.736,-3.122 1.351,-6.262 1.418,-9.47 0.079,-3.837 0.021,-7.676 0.034,-11.514 0.012,-3.639 -1.212,-6.936 -3.079,-9.948 -3.072,-4.956 -8.091,-6.514 -13.487,-7.088 -2.865,-0.305 -5.773,-0.057 -8.587,0.593 -5.485,1.268 -11.101,1.358 -16.656,1.938 -6.511,0.681 -13.065,0.954 -19.619,0.701 -3.662,-0.142 -7.325,-0.351 -10.977,-0.649 -5.09,-0.415 -10.195,-0.764 -15.25,-1.46 C 89.186,15.952 80.972,14.695 72.796,13.245 63.673,11.627 54.636,9.505 45.49,8.044 39.659,7.112 33.868,5.945 28.031,5.035 19.501,3.705 10.918,2.853 2.39,1.566 1.589,1.445 0.823,1.24 0,0" /></g><g
           transform="translate(549.0209,767.6962)"
           id="g110"><path
             id="path112"
             style="fill:#ffffff;fill-opacity:1;fill-rule:nonzero;stroke:none"
             d="M 0,0 C 1.463,-0.261 2.163,-1.145 2.767,-2.095 4.582,-4.949 6.108,-7.988 6.737,-11.299 8.56,-20.892 9.823,-30.531 8.623,-40.348 8.12,-44.46 8.12,-48.632 7.676,-52.754 6.887,-60.06 6.06,-67.366 5.013,-74.638 4.011,-81.595 2.699,-88.507 1.54,-95.442 c -0.974,-5.83 -1.972,-11.656 -2.872,-17.498 -0.753,-4.89 -1.896,-9.703 -2.236,-14.685 -0.305,-4.473 -0.458,-8.932 -0.478,-13.407 -0.015,-3.358 -0.044,-6.717 -0.063,-10.075 -0.008,-1.272 -0.149,-2.56 0.406,-3.763 1.093,-0.768 1.832,-0.223 2.336,0.703 1.373,2.526 2.75,5.053 4.009,7.636 3.151,6.468 6.66,12.732 10.493,18.819 4.452,7.069 7.706,14.722 10.506,22.546 2.96,8.27 5.862,16.579 8.289,25.015 2.784,9.682 6.455,19.034 9.793,28.51 3.296,9.356 6.053,18.843 7.779,28.626 0.917,5.196 1.891,10.37 2.234,15.652 0.194,2.991 0.787,3.49 3.582,4.295 2.347,0.675 4.749,0.635 7.146,0.576 4.829,-0.12 9.491,-1.025 13.982,-2.882 9.665,-3.996 14.485,-11.594 16.211,-21.534 0.164,-0.942 0.261,-1.91 0.256,-2.865 -0.044,-8.474 0.363,-16.955 -0.253,-25.419 -0.47,-6.445 -2.145,-12.559 -5.422,-18.186 -5.55,-9.531 -10.157,-19.536 -14.847,-29.502 -4.351,-9.246 -8.721,-18.483 -13.203,-27.666 -1.398,-2.863 -3.163,-5.551 -4.805,-8.292 -5.597,-9.344 -10.072,-19.209 -13.861,-29.411 -2.902,-7.814 -4.759,-15.878 -6.552,-23.999 -2.581,-11.692 -5.412,-23.327 -9.568,-34.612 -3.152,-8.557 -6.794,-16.848 -11.133,-24.868 -4.307,-7.96 -11.199,-12.472 -19.476,-15.241 -2.261,-0.757 -4.576,-1.372 -7.028,-1.397 -7.029,-0.071 -12.558,3.699 -15.346,10.157 -1.415,3.281 -1.902,6.761 -2.831,10.137 -1.269,4.609 -2.182,9.325 -3.056,14.03 -0.787,4.238 -1.654,8.464 -2.411,12.709 -0.954,5.348 -1.796,10.711 -2.651,16.073 -1.057,6.626 -2.194,13.244 -3.023,19.899 -0.753,6.044 -2.13,11.962 -3.297,17.916 -1.628,8.308 -3.557,16.559 -5.476,24.807 -0.939,4.038 -2.166,8.008 -3.226,12.018 -0.897,3.397 -1.995,6.767 -2.556,10.222 -1.055,6.509 -3.186,12.686 -5.239,18.901 -0.951,2.88 -1.973,5.744 -2.744,8.672 -0.863,3.274 -1.186,6.67 -0.349,9.981 2.036,8.047 4.053,16.102 7.044,23.878 2.124,5.519 4.509,10.901 7.237,16.15 6.539,12.582 16.085,22.14 28.51,28.919 5.048,2.754 10.037,5.624 14.961,8.595 C -4.977,-3.666 -2.458,-1.71 0,0" /></g><g
           transform="translate(722.0501,629.8099)"
           id="g114"><path
             id="path116"
             style="fill:#ffffff;fill-opacity:1;fill-rule:nonzero;stroke:none"
             d="m 0,0 c -0.246,-8.615 -0.485,-16.431 -0.683,-24.249 -0.07,-2.763 -0.63,-5.379 -1.931,-7.83 -2.667,-5.024 -7.771,-6.861 -12.973,-4.595 -1.461,0.636 -2.946,1.299 -4.25,2.196 -6.99,4.807 -13.722,9.921 -18.93,16.75 -2.726,3.574 -6.024,6.617 -9.278,9.677 -5.816,5.468 -11.808,10.748 -17.613,16.227 -2.666,2.515 -5.112,5.271 -7.564,8.003 -1.761,1.962 -2.172,4.113 -0.756,6.584 1.979,3.453 3.734,7.034 5.637,10.531 3.28,6.027 6.63,12.016 9.892,18.052 1.989,3.68 3.095,7.646 3.89,11.76 1.187,6.143 2.008,12.305 1.611,18.551 -0.304,4.771 -1.11,9.51 -1.41,14.281 -0.52,8.291 -0.568,16.588 0.154,24.884 0.247,2.839 1.332,4.786 3.997,5.958 2.77,1.22 5.47,2.611 8.145,4.032 1.586,0.843 2.984,0.63 4.551,-0.07 3.017,-1.345 5.301,-3.539 7.346,-6.013 2.771,-3.354 4.759,-7.195 6.352,-11.208 2.709,-6.822 4.825,-13.831 6.614,-20.962 2.987,-11.911 6.388,-23.718 9.366,-35.631 1.856,-7.426 3.361,-14.946 4.834,-22.461 C -0.718,22.83 -0.208,11.027 0,0" /></g><g
           transform="translate(668.13,1879.2498)"
           id="g118"><path
             id="path120"
             style="fill:#ffffff;fill-opacity:1;fill-rule:nonzero;stroke:none"
             d="m 0,0 c -1.062,4.305 -2.13,8.313 -3.011,12.361 -0.386,1.776 -1.062,3.325 -2.195,4.711 -0.303,0.371 -0.607,0.754 -0.83,1.174 -2.891,5.442 -7.81,8.753 -12.69,12.111 -1.07,0.737 -2.23,1.163 -3.507,1.448 -3.74,0.837 -7.453,1.791 -11.174,2.705 -2.342,0.576 -4.709,0.766 -7.125,0.761 -16.954,-0.035 -33.909,-0.047 -50.863,0.008 -2.907,0.01 -5.733,-0.308 -8.533,-1.021 -1.548,-0.394 -3.078,-0.956 -4.651,-1.131 -6.148,-0.685 -11.033,-3.884 -15.708,-7.587 -1.015,-0.804 -1.939,-1.654 -2.671,-2.72 -0.543,-0.79 -1.095,-1.575 -1.672,-2.341 -2.403,-3.195 -4.847,-6.365 -5.454,-10.416 -1.045,-0.122 -1.201,0.62 -1.309,1.095 -1.193,5.216 -5.059,8.795 -7.885,13.008 -4.484,3.259 -8.474,7.376 -14.328,8.26 -0.157,0.024 -0.314,0.064 -0.466,0.11 -7.73,2.318 -15.616,2.917 -23.676,2.784 -14.391,-0.239 -28.789,-0.101 -43.184,-0.039 -2.908,0.012 -5.735,-0.296 -8.535,-1.009 -1.702,-0.433 -3.384,-1.128 -5.108,-1.259 -6.471,-0.491 -11.161,-4.405 -16.007,-8.043 -1.83,-1.374 -2.73,-3.525 -4.183,-5.214 -2.673,-3.109 -3.908,-6.769 -4.976,-10.697 -1.994,-7.332 -2.613,-14.695 -2.57,-22.262 0.154,-26.87 0.06,-53.741 0.06,-80.612 v -5.492 c -1.618,0.765 -1.668,2.131 -2.029,3.222 -5.172,15.616 -10.294,31.248 -15.444,46.871 -6.648,20.172 -13.254,40.358 -20,60.498 -2.122,6.335 -6.01,11.487 -11.348,15.611 -3.997,3.088 -8.336,4.962 -13.284,6.144 -6.433,1.537 -12.813,2.346 -19.419,2.265 -13.754,-0.17 -27.511,-0.073 -41.266,-0.032 -2.417,0.008 -4.784,-0.2 -7.124,-0.769 -3.724,-0.906 -7.436,-1.864 -11.174,-2.706 -1.271,-0.286 -2.465,-0.645 -3.525,-1.407 -2.466,-1.773 -4.962,-3.508 -7.388,-5.333 -0.751,-0.565 -1.379,-1.325 -1.959,-2.076 -3.626,-4.694 -6.513,-9.675 -8.365,-15.454 -11.406,-35.586 -23.075,-71.088 -34.662,-106.616 -0.423,-1.298 -0.899,-2.578 -1.328,-3.804 -1.085,0.175 -1.238,0.793 -1.392,1.416 -0.882,3.566 -1.728,7.141 -2.671,10.691 -0.303,1.14 -0.196,2.171 0.089,3.283 1.071,4.177 2.006,8.389 3.106,12.558 3.059,11.585 3.295,23.362 2.721,35.235 -0.413,8.545 -2.836,16.673 -4.664,24.93 -0.207,0.936 -0.426,1.87 -0.685,2.792 -0.475,1.69 -0.792,3.457 -1.509,5.041 -4.201,9.269 -9.711,17.596 -17.85,23.929 -2.143,1.668 -4.443,3.134 -6.607,4.776 -4.402,3.341 -9.356,5.5 -14.666,6.84 -5.728,1.446 -11.5,2.719 -17.243,4.106 -8.3,2.006 -16.772,2.345 -25.244,2.491 -8.635,0.149 -17.274,0.034 -25.911,0.071 -1.557,0.007 -10.208,0.003 -10.208,0.003 0,0 7.996,1.685 9.275,2.005 12.555,3.135 24.918,6.921 37.229,10.878 8.059,2.59 15.974,5.566 23.591,9.31 7.069,3.475 13.651,7.657 19.593,12.836 1.206,1.05 11.048,9.169 12.248,10.226 1.404,1.404 6.583,0.689 15.534,-0.277 4.147,-0.448 8.13,-1.65 12.099,-2.888 3.203,-0.999 6.419,-2.006 9.767,-2.352 7.648,-0.789 14.563,1.224 20.776,5.706 3.671,2.649 6.695,5.94 9.252,9.651 1.631,2.368 3.185,4.793 4.692,7.242 7.398,12.024 17.305,21.263 30.129,27.292 4.19,1.97 8.353,3.999 12.564,5.924 15.374,7.027 28.473,17.042 39.414,29.905 4.041,4.751 8.058,9.522 12.113,14.261 3.85,4.5 7.874,8.838 12.298,12.786 9.213,8.984 7.745,7.899 20.935,12.235 6.246,1.953 12.318,4.412 18.324,7.029 2.186,0.952 7.067,3.013 9.337,3.763 3.345,1.104 3.101,0.788 4.81,0.043 9.068,-3.753 17.474,-12.089 18.535,-22.205 0.416,-3.974 0.492,-7.982 0.87,-11.961 0.873,-9.199 4.207,-17.379 10.687,-24.057 5.977,-6.16 9.083,-13.629 9.416,-21.98 0.377,-9.451 4.556,-16.569 11.91,-21.896 8.868,-6.423 18.519,-11.32 29.481,-13.164 3.185,-0.536 6.331,-0.544 9.518,0.186 8.873,2.031 17.748,4.059 26.735,5.55 2.521,0.418 5.022,0.952 7.538,1.4 3.106,0.553 5.667,2.078 7.856,4.299 3.762,3.817 7.85,11.878 9.389,17.04 0.529,1.729 1.276,1.787 6.281,-0.748 2.125,-1.062 4.101,-2.489 5.985,-3.955 5.556,-4.325 10.861,-8.948 15.859,-13.915 1.361,-1.352 2.691,-2.739 4.09,-4.052 4.017,-3.771 8.689,-4.446 13.786,-2.74 1.662,0.557 3.265,1.291 4.883,1.975 6.707,2.836 13.396,2.6 20.034,-0.187 2.058,-0.864 4.059,-1.881 6.028,-2.938 7.518,-4.034 15.545,-5.678 24.036,-5.334 1.938,0.078 3.778,0.386 5.603,1.081 14.239,5.42 27.753,12.232 40.408,20.739 8.294,5.575 15.542,12.289 21.955,19.922 8.452,10.062 15.901,20.835 22.619,32.119 1.881,3.16 3.596,6.41 4.978,9.825 1.28,3.165 3.273,5.81 5.67,8.229 5.701,5.753 12.33,10.136 19.627,13.548 2.891,1.353 5.848,2.566 8.778,3.836 1.758,0.762 3.527,1.497 5.279,2.272 8.146,3.605 14.02,9.357 16.921,17.922 0.358,1.057 0.794,2.09 1.225,3.122 2.729,6.525 7.034,11.755 12.914,15.689 1.196,0.8 2.438,1.546 3.549,2.451 3.105,2.53 5.316,5.755 5.334,9.802 0.042,9.5 4.849,16.719 10.807,23.366 2.681,2.992 6.595,7.625 8.349,11.278 1.128,2.349 1.765,1.473 4.284,0.969 4.733,-0.947 9.232,-2.492 13.388,-5.007 2.269,-1.372 3.741,-3.419 4.83,-5.564 2.859,-0.719 5.382,-0.51 7.873,0.187 2.92,0.817 5.845,1.629 8.721,2.585 7.072,2.351 12.668,6.683 16.839,12.851 0.895,1.323 1.722,2.692 2.578,4.042 5.276,9.119 5.276,9.119 9.005,5.958 0.502,-0.392 5.55,-4.393 5.971,-4.87 8.566,-9.674 19.742,-15.118 31.729,-18.911 6.591,-2.085 12.157,-5.509 17.328,-9.874 7.711,-6.51 14.825,-13.645 21.855,-20.866 15.846,-16.276 31.017,-33.183 46.515,-49.784 8.514,-9.121 17.126,-18.144 25.975,-26.943 10.01,-9.953 20.782,-18.936 32.684,-26.581 16.446,-10.565 31.633,-22.81 46.521,-35.432 16.107,-13.654 32.065,-27.472 46.92,-42.511 9.447,-9.564 18.495,-19.488 27.095,-29.819 0.698,-0.839 2.566,-3.195 3.22,-4.344 -1.516,0.782 -3.369,1.36 -3.369,1.36 -1.729,0.498 -3.479,0.442 -5.235,0.442 -10.716,0.002 -21.433,-0.031 -32.149,0.026 -10.398,0 -13.161,-1.338 -17.196,-3 -1.592,-0.656 -4.37,-1.675 -6.167,-3.065 -2.881,-2.228 -6.147,-3.968 -8.608,-7.112 -2.881,3.229 -6.425,5.345 -9.719,7.791 -1.303,0.967 -2.704,1.586 -4.321,1.931 -3.59,0.765 -7.134,1.745 -10.705,2.601 -2.492,0.599 -5.01,0.872 -7.594,0.856 -10.396,-0.064 -20.793,-0.071 -31.189,0.002 -2.909,0.021 -5.732,-0.322 -8.532,-1.027 -1.548,-0.39 -3.074,-0.979 -4.645,-1.143 -6.174,-0.641 -10.988,-3.966 -15.711,-7.588 -1.57,-1.204 -2.644,-2.756 -3.763,-4.305 -4.568,-6.325 -4.511,-6.342 -6.358,-13.684 -1.487,-5.913 -2.219,-11.849 -2.177,-17.986 0.162,-23.831 0.066,-47.663 0.066,-71.495 0,-1.751 0,-3.501 0,-5.544 -1.434,0.938 -1.603,2.212 -1.978,3.343 -4.464,13.496 -8.923,26.993 -13.366,40.496 -5.889,17.9 -11.802,35.792 -17.611,53.718 -1.101,3.397 -2.91,6.311 -4.769,9.311 -3.165,5.111 -8.041,8.117 -12.744,11.388 -0.752,0.524 -1.753,0.738 -2.671,0.968 -3.872,0.969 -7.757,1.884 -11.635,2.832 -2.186,0.534 -4.394,0.71 -6.649,0.705 -15.674,-0.034 -31.349,-0.049 -47.024,0.011 -2.909,0.011 -5.732,-0.325 -8.534,-1.027 -3.097,-0.776 -6.17,-1.694 -9.305,-2.262 -2.299,-0.417 -4.234,-1.355 -6.005,-2.782 -0.248,-0.2 -0.504,-0.401 -0.783,-0.552 -5.418,-2.931 -8.62,-7.942 -12.031,-12.766 -1.142,-1.615 -1.539,-3.511 -2.13,-5.317 -10.028,-30.662 -20.009,-61.339 -30.03,-92.004 -0.579,-1.772 -0.87,-3.708 -2.332,-5.537 -2.345,7.119 -2.837,14.389 -6.144,20.559 1.485,6.093 3.253,11.912 4.243,17.861 0.81,4.869 0.36,9.892 0.021,14.84 -0.329,4.793 -1.086,9.514 -2.337,14.168 -1.12,4.163 -2.009,8.388 -3.017,12.581 -0.907,3.77 -2.432,7.262 -4.769,10.379 -0.095,0.128 -0.18,0.264 -0.272,0.395 -8.477,12.071 -8.805,12.363 -21.029,20.572 -3.63,2.438 -7.596,4.131 -11.789,5.169 -7.749,1.919 -15.531,3.726 -23.347,5.348 -3.743,0.777 -7.582,1.253 -11.401,1.473 -13.417,0.772 -26.84,1.127 -40.281,0.365 C 66.805,36.345 59.862,35.451 53.02,33.708 47.76,32.367 42.461,31.177 37.199,29.845 32.192,28.578 27.613,26.393 23.412,23.359 9.543,13.344 12.647,16.275 2.911,2.904 2.197,1.923 1.797,0.619 0,0" /></g><g
           transform="translate(89.5537,306.1731)"
           id="g122"><path
             id="path124"
             style="fill:#ffffff;fill-opacity:1;fill-rule:nonzero;stroke:none"
             d="m 0,0 c 15.478,0 19.498,2.613 19.498,12.463 0,8.039 -1.408,11.055 -5.629,12.662 -1.407,0.604 -1.407,0.604 -11.457,1.006 h -26.331 l 0,-26.131 z m -1.206,50.854 c 12.06,0.201 12.06,0.201 14.07,1.408 3.216,1.406 4.623,5.225 4.623,11.457 0,9.045 -2.412,11.256 -12.462,11.256 H -23.919 V 50.854 Z m -58.693,53.668 h 72.763 c 29.548,0 40.201,-9.648 40.201,-35.577 0,-13.066 -2.211,-19.9 -8.442,-24.523 C 40,41.005 36.583,39.598 30.753,38.794 v -0.603 c 18.493,-1.608 24.523,-9.246 24.523,-31.759 0,-26.934 -10.452,-35.979 -41.608,-35.979 h -73.567 z" /></g><g
           transform="translate(196.6846,357.0266)"
           id="g126"><path
             id="path128"
             style="fill:#ffffff;fill-opacity:1;fill-rule:nonzero;stroke:none"
             d="M 0,0 H 57.085 V -24.723 H 0 V -50.854 H 62.311 V -80.4 H -35.98 V 53.669 H 61.105 V 24.121 L 0,24.121 Z" /></g><g
           transform="translate(341.4023,342.5549)"
           id="g130"><path
             id="path132"
             style="fill:#ffffff;fill-opacity:1;fill-rule:nonzero;stroke:none"
             d="m 0,0 c 11.859,0 14.07,3.216 14.07,21.307 0,13.266 -2.613,16.08 -15.879,16.08 H -28.542 V 0 Z M -64.522,68.141 H 3.216 c 19.297,0 27.94,-1.81 35.779,-7.839 8.643,-6.433 11.859,-15.88 11.859,-33.971 0,-19.496 -2.412,-28.542 -9.045,-33.768 -3.417,-2.814 -6.633,-4.02 -16.08,-6.432 v -1.407 c 16.482,-0.804 24.522,-9.649 24.12,-26.131 V -65.929 H 13.266 v 17.889 c 0.402,12.463 -4.422,18.09 -15.075,17.688 h -26.733 v -35.577 h -35.98 z" /></g><g
           transform="translate(527.7295,352.4035)"
           id="g134"><path
             id="path136"
             style="fill:#ffffff;fill-opacity:1;fill-rule:nonzero;stroke:none"
             d="m 0,0 c 0.201,-11.457 0.402,-21.707 0.402,-28.742 0,-19.699 -2.412,-28.543 -9.648,-36.383 -8.643,-9.045 -20.101,-11.658 -53.065,-11.658 -19.296,0 -27.538,1.006 -35.377,4.422 -17.889,7.638 -24.924,22.312 -24.924,51.457 0,11.055 0.402,30.754 0.803,37.386 1.006,15.278 7.036,26.936 17.287,33.77 10.854,7.236 20.502,9.045 49.045,9.045 23.518,0 31.759,-1.206 40.804,-6.432 C -4.824,47.438 -0.603,36.785 0,16.482 h -36.382 c -1.407,10.655 -5.025,12.866 -21.909,12.866 -14.875,0 -21.508,-2.412 -24.724,-8.845 -2.211,-4.221 -2.814,-9.648 -2.814,-27.738 0,-17.286 0.804,-26.533 2.412,-30.954 2.412,-6.032 8.845,-8.645 21.91,-8.645 13.668,0 20.1,1.81 23.115,6.232 2.211,3.416 2.613,5.627 2.814,15.879 H -60.502 V 0 Z" /></g><g
           transform="translate(704.4062,276.6262)"
           id="g138"><path
             id="path140"
             style="fill:#ffffff;fill-opacity:1;fill-rule:nonzero;stroke:none"
             d="m 0,0 h -51.657 l -9.246,42.01 c -3.217,13.869 -6.031,27.939 -8.845,42.01 h -1.407 c -0.402,-2.01 -1.408,-6.633 -2.211,-10.454 -1.206,-6.029 -2.01,-10.049 -2.211,-10.652 -1.609,-7.035 -3.216,-13.869 -5.026,-20.904 L -90.652,0 h -51.056 l -28.743,134.069 h 35.98 l 10.05,-51.658 4.824,-25.93 c 1.608,-8.442 3.015,-16.883 4.422,-25.728 h 1.407 l 2.814,12.864 3.015,12.864 6.432,25.93 12.864,51.658 h 36.986 l 12.462,-51.658 c 4.02,-17.286 6.632,-28.341 7.637,-33.567 1.408,-6.031 2.614,-11.86 4.021,-18.091 h 1.206 c 3.015,17.085 6.231,34.171 9.85,51.658 l 10.452,51.658 H 29.95 Z" /></g><g
           transform="translate(793.6465,383.9621)"
           id="g142"><path
             id="path144"
             style="fill:#ffffff;fill-opacity:1;fill-rule:nonzero;stroke:none"
             d="m 0,0 -16.482,-58.291 h 33.367 z m -24.12,-84.221 -6.433,-23.115 H -67.939 L -27.738,26.733 H 26.733 L 67.537,-107.336 H 30.955 l -7.035,23.115 z" /></g><g
           transform="translate(982.9893,327.2785)"
           id="g146"><path
             id="path148"
             style="fill:#ffffff;fill-opacity:1;fill-rule:nonzero;stroke:none"
             d="m 0,0 v -4.02 c -0.2,-23.115 -2.412,-30.15 -11.858,-37.99 -4.825,-4.019 -12.061,-7.236 -18.694,-8.441 -4.02,-0.805 -12.864,-1.207 -25.126,-1.207 -24.522,0 -30.351,0.603 -38.593,4.422 -11.457,5.427 -18.894,14.875 -21.507,27.939 -1.407,6.634 -2.211,25.327 -2.211,47.639 0,23.316 3.217,34.17 12.463,43.216 10.853,10.452 21.105,12.864 52.863,12.864 19.899,0 26.332,-0.805 34.171,-4.422 9.849,-4.623 15.075,-12.463 16.885,-24.925 0.602,-4.623 0.803,-8.241 1.004,-19.698 h -35.578 c -0.401,8.441 -0.602,9.85 -2.009,12.463 -2.413,4.221 -7.638,5.627 -20.704,5.627 -12.663,0 -18.09,-2.412 -20.301,-9.246 -1.608,-4.623 -2.01,-11.658 -2.01,-39.598 0,-21.105 4.019,-25.527 23.517,-25.527 17.689,0 22.312,3.417 22.312,17.086 0,0.401 0,2.211 -0.201,3.818 z" /></g><g
           transform="translate(1116.6523,276.6262)"
           id="g150"><path
             id="path152"
             style="fill:#ffffff;fill-opacity:1;fill-rule:nonzero;stroke:none"
             d="M 0,0 H -35.979 V 52.662 H -82.612 V 0 h -35.98 v 134.069 h 35.98 V 83.416 h 46.633 v 50.653 H 0 Z" /></g><g
           transform="translate(1198.8604,276.6262)"
           id="g154"><path
             id="path156"
             style="fill:#ffffff;fill-opacity:1;fill-rule:nonzero;stroke:none"
             d="m 0,0 h -35.979 v 103.315 h -33.97 v 30.754 h 106.13 v -30.754 l -36.181,0 z" /></g><g
           transform="translate(72.2251,1663.0876)"
           id="g158"><path
             id="path160"
             style="fill:#ffffff;fill-opacity:1;fill-rule:nonzero;stroke:none"
             d="m 0,0 -11.48,-40.6 h 23.24 z m -16.8,-58.66 -4.48,-16.1 h -26.04 l 28,93.38 H 18.62 L 47.04,-74.76 H 21.56 l -4.9,16.1 z" /></g><g
           transform="translate(169.2012,1609.7478)"
           id="g162"><path
             id="path164"
             style="fill:#ffffff;fill-opacity:1;fill-rule:nonzero;stroke:none"
             d="M 0,0 H 39.2 V -21.42 H -25.06 V 71.959 H 0 Z" /></g><g
           transform="translate(274.8867,1633.8279)"
           id="g166"><path
             id="path168"
             style="fill:#ffffff;fill-opacity:1;fill-rule:nonzero;stroke:none"
             d="m 0,0 c 11.2,0 12.6,1.54 12.6,13.58 0,7.98 -1.12,11.2 -4.48,12.74 -2.1,0.84 -2.8,0.98 -7.98,0.98 H -15.68 V 0 Z M -40.74,47.879 H -4.2 1.54 6.16 c 10.64,0 14.28,-0.699 20.16,-4.199 8.68,-5.04 11.9,-13.44 11.9,-31.36 0,-13.58 -1.68,-20.58 -6.16,-26.04 -2.94,-3.64 -8.68,-6.44 -14.56,-7.28 -1.68,-0.14 -1.68,-0.14 -14.14,-0.42 L -0.7,-21.56 H -15.68 V -45.5 h -25.06 z" /></g><path
           id="path170"
           style="fill:#ffffff;fill-opacity:1;fill-rule:nonzero;stroke:none"
           d="m 364.611,1588.328 h -25.06 v 93.379 h 25.06 z" /><g
           transform="translate(488.5654,1588.3279)"
           id="g172"><path
             id="path174"
             style="fill:#ffffff;fill-opacity:1;fill-rule:nonzero;stroke:none"
             d="m 0,0 h -42.42 l -14.7,39.34 c -1.96,5.46 -4.06,10.92 -6.02,16.24 l -5.6,16.379 h -1.12 l 0.42,-8.679 c 0.56,-12.74 0.7,-14.84 0.7,-25.9 V 0 h -24.5 V 93.379 H -51.1 L -36.26,54.04 c 1.96,-5.32 3.92,-10.5 6.02,-15.82 1.82,-5.32 3.64,-10.64 5.46,-15.82 h 0.98 l -0.28,8.4 c -0.56,12.32 -0.7,14.14 -0.7,25.2 V 93.379 H 0 Z" /></g><g
           transform="translate(564.5273,1634.2478)"
           id="g176"><path
             id="path178"
             style="fill:#ffffff;fill-opacity:1;fill-rule:nonzero;stroke:none"
             d="m 0,0 c 8.26,0 9.8,2.24 9.8,14.84 0,9.24 -1.821,11.2 -11.06,11.2 H -19.88 L -19.88,0 Z M -44.94,47.459 H 2.24 C 15.68,47.459 21.7,46.2 27.16,42 33.18,37.52 35.419,30.94 35.419,18.34 35.419,4.76 33.74,-1.54 29.12,-5.18 26.74,-7.14 24.5,-7.98 17.92,-9.66 v -0.98 C 29.399,-11.2 35,-17.36 34.72,-28.84 V -45.92 H 9.24 v 12.46 c 0.28,8.68 -3.08,12.6 -10.5,12.32 h -18.62 v -24.78 h -25.06 z" /></g><g
           transform="translate(654.1123,1644.3279)"
           id="g180"><path
             id="path182"
             style="fill:#ffffff;fill-opacity:1;fill-rule:nonzero;stroke:none"
             d="M 0,0 H 39.76 V -17.22 H 0 v -18.2 H 43.4 V -56 H -25.06 V 37.379 H 42.56 V 16.8 L 0,16.8 Z" /></g><g
           transform="translate(770.3809,1588.3279)"
           id="g184"><path
             id="path186"
             style="fill:#ffffff;fill-opacity:1;fill-rule:nonzero;stroke:none"
             d="M 0,0 H -25.061 V 71.959 H -48.72 v 21.42 H 25.199 V 71.959 H 0 Z" /></g><g
           transform="translate(867.0928,1588.3279)"
           id="g188"><path
             id="path190"
             style="fill:#ffffff;fill-opacity:1;fill-rule:nonzero;stroke:none"
             d="M 0,0 H -25.061 V 71.959 H -48.72 v 21.42 H 25.199 V 71.959 H 0 Z" /></g><g
           transform="translate(999.1816,1681.7073)"
           id="g192"><path
             id="path194"
             style="fill:#ffffff;fill-opacity:1;fill-rule:nonzero;stroke:none"
             d="m 0,0 v -58.939 c 0,-1.4 -0.699,-12.04 -0.84,-13.3 -0.979,-7.7 -5.04,-14 -11.34,-17.5 -6.16,-3.361 -12.179,-4.341 -28,-4.341 -14.84,0 -22.119,0.98 -28.279,3.781 -8.26,3.92 -11.76,9.659 -12.46,20.579 -0.28,2.801 -0.28,3.781 -0.28,8.821 V 0 h 25.059 v -60.899 c 0,-10.08 2.521,-11.761 16.8,-11.761 12.04,0 14.28,1.96 14.28,13.02 l 0,59.64 z" /></g><g
           transform="translate(1123.1797,1588.3279)"
           id="g196"><path
             id="path198"
             style="fill:#ffffff;fill-opacity:1;fill-rule:nonzero;stroke:none"
             d="m 0,0 h -42.42 l -14.7,39.34 c -1.96,5.46 -4.06,10.92 -6.02,16.24 l -5.6,16.379 h -1.12 l 0.421,-8.679 c 0.559,-12.74 0.699,-14.84 0.699,-25.9 V 0 h -24.5 V 93.379 H -51.1 L -36.26,54.04 c 1.96,-5.32 3.92,-10.5 6.02,-15.82 1.82,-5.32 3.639,-10.64 5.46,-15.82 h 0.98 l -0.28,8.4 c -0.561,12.32 -0.7,14.14 -0.7,25.2 V 93.379 H 0 Z" /></g><g
           transform="translate(1237.1797,1641.1077)"
           id="g200"><path
             id="path202"
             style="fill:#ffffff;fill-opacity:1;fill-rule:nonzero;stroke:none"
             d="m 0,0 c 0.14,-7.98 0.28,-15.12 0.28,-20.02 0,-13.72 -1.68,-19.88 -6.719,-25.34 -6.021,-6.3 -14,-8.12 -36.96,-8.12 -13.441,0 -19.181,0.7 -24.641,3.08 -12.46,5.32 -17.359,15.54 -17.359,35.84 0,7.7 0.28,21.42 0.559,26.04 0.7,10.64 4.901,18.76 12.04,23.52 7.561,5.04 14.28,6.3 34.16,6.3 16.38,0 22.12,-0.84 28.42,-4.48 6.86,-3.78 9.8,-11.2 10.22,-25.34 h -25.34 c -0.979,7.42 -3.5,8.96 -15.26,8.96 -10.36,0 -14.98,-1.68 -17.219,-6.16 -1.54,-2.94 -1.96,-6.72 -1.96,-19.32 0,-12.04 0.559,-18.48 1.679,-21.56 1.68,-4.2 6.161,-6.02 15.26,-6.02 9.521,0 14,1.26 16.1,4.34 1.54,2.38 1.82,3.92 1.96,11.06 H -42.14 V 0 Z" /></g><g
           transform="translate(837.0242,1083.646)"
           id="g204"><path
             id="path206"
             style="fill:#e30613;fill-opacity:1;fill-rule:nonzero;stroke:none"
             d="M 0,0 H -150.952 V 150.952 H -294.871 V 0 h -150.952 v -143.918 h 150.952 v -150.953 h 143.919 v 150.953 H 0 Z" /></g></g></g></g></svg>